<svg xmlns="http://www.w3.org/2000/svg" xmlns:xlink="http://www.w3.org/1999/xlink" version="1.1" x="0px" y="0px" viewBox="0 0 61 61" enable-background="new 0 0 61 61" xml:space="preserve"><style>.lp_teaser-overlay-icons {fill:#606060;}</style><path d="M16.739 35.541v-0.977c0-0.149 0.11-0.27 0.245-0.27H27.21c0.134 0 0.2 0.1 0.2 0.27v0.977 c0 0.148-0.11 0.268-0.246 0.268H16.982c-0.134-0.004-0.25-0.126-0.25-0.27L16.739 35.541z M17.047 38.193h12.856 c0.17 0 0.308-0.121 0.308-0.27v-0.977c0-0.149-0.136-0.27-0.307-0.27H17.048c-0.169 0-0.307 0.121-0.307 0.27v0.977 c0 0.1 0.1 0.3 0.3 0.27L17.047 38.193z M61 30.5C61 47.3 47.3 61 30.5 61S0 47.3 0 30.5S13.655 0 30.5 0 S61 13.7 61 30.5z M46.762 28.082H14.238v10.22c0 1.2 1 2.3 2.3 2.249h28.026c1.242 0 2.249-1.007 2.249-2.249v-10.22 H46.762z M46.762 22.698c0-1.242-1.007-2.249-2.249-2.249H16.487c-1.242 0-2.249 1.007-2.249 2.249v2.065h32.525L46.762 22.7 C46.763 22.7 46.8 22.7 46.8 22.698z" class="lp_teaser-overlay-icons"/></svg>
