<svg xmlns="http://www.w3.org/2000/svg" xmlns:xlink="http://www.w3.org/1999/xlink" version="1.1" x="0px" y="0px" viewBox="0 0 61 61" enable-background="new 0 0 61 61" xml:space="preserve"><style>.lp_teaser-overlay-icons {fill:#606060;}</style><path d="M45.664 37.478H15.336V25.325h30.329L45.664 37.478L45.664 37.478z M61 30.5C61 47.3 47.3 61 30.5 61S0 47.3 0 30.5 S13.655 0 30.5 0S61 13.7 61 30.5z M14.079 24.771v13.261c0 0.4 0.2 0.7 0.5 0.704h31.924c0.254 0 0.46-0.315 0.46-0.701 V24.772c0-0.388-0.206-0.701-0.46-0.701H14.538c-0.254 0.008-0.468 0.313-0.468 0.699L14.079 24.771z M43.12 19.25v-2.711H14.079 v2.711H43.12z M14.118 50.064h29.33v-2.712h-29.33L14.118 50.064L14.118 50.064z M39.515 58.198h-18.03 c2.849 0.9 5.9 1.4 9 1.356s6.173-0.465 9.015-1.356H39.515z M46.961 52.775H14.118v2 c0.385 0.2 0.8 0.5 1.2 0.712h30.419c0.424-0.244 0.841-0.498 1.251-0.762v-1.95L46.961 52.775z M46.961 41.93H14.118v2.712 h32.843C46.961 44.6 47 41.9 47 41.93z M51.108 13.611c0-1.165-0.941-2.113-2.096-2.113H11.988 c-1.156 0-2.097 0.95-2.097 2.115v37.924c0.409 0.4 0.8 0.7 1.3 1.094v-39.02c0-0.472 0.376-0.856 0.84-0.856h37.024 c0.463 0 0.8 0.4 0.8 0.856v39.018c0.429-0.353 0.848-0.719 1.257-1.094V13.611L51.108 13.611L51.108 13.611z" class="lp_teaser-overlay-icons"/></svg>
