<svg xmlns="http://www.w3.org/2000/svg" width="300" height="300" viewBox="0 0 300 300">
    <radialGradient id="a" cx="57.388" cy="57.021" r="264.58" gradientUnits="userSpaceOnUse"><stop offset="0" stop-color="#9DD5F6"/><stop offset=".071" stop-color="#98D3F5"/><stop offset=".158" stop-color="#89CEF3"/><stop offset=".252" stop-color="#70C6EF"/><stop offset=".351" stop-color="#4EBBEA"/><stop offset=".455" stop-color="#23ADE3"/><stop offset=".5" stop-color="#0DA6E0"/><stop offset="1" stop-color="#2E77BC"/></radialGradient><path fill="url(#a)" d="M289.584 7.598H7.64v282.966h281.944v-93.386c1.12-1.62 1.673-3.69 1.673-6.222 0-2.898-.553-4.693-1.673-6.205"/><defs><path id="b" d="M289.584 7.598H7.64v282.966h281.944v-93.386c1.12-1.62 1.673-3.69 1.673-6.222 0-2.898-.553-4.693-1.673-6.205"/></defs><path fill="#FFF" d="M33.053 130.042l-5.424-13.217-5.394 13.217m130.307-5.263c-1.09.66-2.377.682-3.92.682h-9.627v-7.364h9.758c1.38 0 2.822.062 3.758.598 1.028.483 1.664 1.51 1.664 2.93 0 1.45-.605 2.616-1.633 3.153zm68.678 5.262l-5.483-13.217-5.454 13.217h10.938zM93.2 144.348h-8.123l-.03-25.966-11.49 25.966h-6.96l-11.52-25.99v25.99H38.96l-3.046-7.395h-16.5l-3.076 7.395H7.73l14.192-33.154h11.774l13.478 31.39v-31.39h12.934l10.37 22.49 9.528-22.49H93.2v33.154zm32.38 0H99.107v-33.154h26.473v6.904h-18.548v5.976h18.103v6.796h-18.103v6.62h18.548v6.858zm37.326-24.225c0 5.286-3.528 8.017-5.584 8.837 1.734.66 3.215 1.826 3.92 2.792 1.12 1.65 1.312 3.122 1.312 6.083v6.513h-7.993l-.03-4.18c0-1.996.192-4.865-1.25-6.46-1.158-1.166-2.923-1.42-5.776-1.42h-8.507v12.06h-7.924v-33.154H149.3c4.05 0 7.034.107 9.596 1.588 2.507 1.48 4.01 3.643 4.01 7.34zm12.682 24.225h-8.086v-33.154h8.086v33.154zm93.808 0h-11.23l-15.02-24.884v24.884h-16.14l-3.084-7.395H207.46l-2.992 7.395h-9.273c-3.852 0-8.73-.852-11.49-3.667-2.786-2.814-4.235-6.627-4.235-12.656 0-4.917.866-9.412 4.272-12.964 2.562-2.646 6.574-3.866 12.035-3.866h7.672v7.104h-7.512c-2.892 0-4.525.43-6.098 1.964-1.35 1.396-2.278 4.035-2.278 7.51 0 3.552.706 6.113 2.18 7.786 1.22 1.312 3.436 1.71 5.522 1.71h3.56l11.168-26.073h11.874l13.417 31.36v-31.36h12.066l13.93 23.09v-23.09h8.116v33.153zM7.64 150.86h13.54l3.052-7.364h6.835l3.045 7.364h26.64v-5.63l2.38 5.654h13.83l2.377-5.738v5.714h66.207l-.03-12.088h1.28c.897.03 1.16.114 1.16 1.595v10.493h34.242v-2.814c2.76 1.48 7.057 2.814 12.71 2.814h14.406l3.083-7.364h6.834l3.015 7.364h27.76v-6.995l4.204 6.995h22.246v-46.24h-22.016v5.46l-3.083-5.46h-22.59v5.46l-2.83-5.46h-30.516c-5.108 0-9.598.713-13.225 2.7v-2.7h-21.06v2.7c-2.307-2.048-5.452-2.7-8.95-2.7H75.26l-5.162 11.943-5.3-11.943H40.562v5.46l-2.662-5.46H17.236l-9.597 21.985v24.255zM289.584 175.315H275.14c-1.44 0-2.4.054-3.206.6-.836.536-1.158 1.333-1.158 2.385 0 1.25.706 2.102 1.733 2.47.835.29 1.733.376 3.053.376l4.295.115c4.334.108 7.227.853 8.99 2.67.322.253.515.537.736.82m0 12.428c-1.925 2.815-5.676 4.242-10.754 4.242h-15.304v-7.11h15.242c1.512 0 2.57-.2 3.207-.822.552-.513.937-1.258.937-2.163 0-.966-.385-1.733-.968-2.193-.575-.506-1.412-.736-2.792-.736-7.44-.253-16.724.23-16.724-10.264 0-4.81 3.054-9.873 11.37-9.873h15.785v-6.6h-14.666c-4.426 0-7.64 1.06-9.918 2.71v-2.71h-21.694c-3.47 0-7.54.86-9.467 2.71v-2.71H195.1v2.71c-3.082-2.225-8.284-2.71-10.685-2.71h-25.552v2.71c-2.44-2.363-7.863-2.71-11.17-2.71h-28.596l-6.544 7.083-6.13-7.082H63.707v46.273h41.914l6.743-7.194 6.352 7.193 25.836.023V197.07h2.54c3.43.054 7.472-.084 11.04-1.626v12.488h21.31v-12.06h1.027c1.312 0 1.44.054 1.44 1.365v10.694h64.737c4.11 0 8.406-1.05 10.785-2.96v2.96h20.533c4.273 0 8.446-.598 11.62-2.132v-8.62zm-31.61-13.248c1.542 1.597 2.37 3.613 2.37 7.026 0 7.134-4.458 10.464-12.45 10.464H232.46v-7.11h15.372c1.503 0 2.57-.2 3.237-.822.544-.513.935-1.258.935-2.163 0-.966-.423-1.733-.967-2.193-.606-.506-1.442-.736-2.822-.736-7.41-.253-16.692.23-16.692-10.264 0-4.81 3.022-9.873 11.33-9.873h15.887v7.057h-14.536c-1.44 0-2.378.054-3.175.6-.87.536-1.19 1.333-1.19 2.385 0 1.25.736 2.102 1.733 2.47.836.29 1.734.376 3.084.376l4.266.115c4.302.105 7.255.85 9.05 2.667zm-71.51-2.048c-1.06.63-2.37.683-3.912.683h-9.627v-7.448h9.758c1.41 0 2.823.03 3.782.6 1.027.536 1.64 1.563 1.64 2.982s-.613 2.56-1.64 3.182zm4.787 4.127c1.765.65 3.207 1.817 3.883 2.783 1.12 1.62 1.28 3.13 1.313 6.053v6.574h-7.956v-4.15c0-1.994.192-4.948-1.28-6.49-1.16-1.188-2.924-1.472-5.815-1.472h-8.47v12.112h-7.962v-33.162h18.296c4.01 0 6.933.177 9.534 1.565 2.5 1.51 4.074 3.58 4.074 7.364 0 5.293-3.53 7.994-5.617 8.822zm10.012-17.752h26.45v6.858h-18.558v6.03h18.104v6.765h-18.104v6.6l18.557.03v6.88h-26.448v-33.162zm-53.467 15.304h-10.24v-8.445h10.332c2.86 0 4.847 1.166 4.847 4.066 0 2.868-1.894 4.38-4.94 4.38zm-18.134 14.842l-12.166-13.508 12.167-13.08v26.588zm-31.42-3.895H78.756v-6.6h17.398v-6.765H78.756v-6.03h19.868l8.668 9.665-9.052 9.73zm63.002-15.327c0 9.212-6.873 11.114-13.8 11.114h-9.888v11.123H122.15l-9.757-10.978-10.14 10.978h-31.39v-33.162h31.872l9.75 10.87 10.08-10.87h25.322c6.29 0 13.355 1.74 13.355 10.925z"/>
</svg>
