<?xml version="1.0" encoding="UTF-8" standalone="no"?>
<svg xmlns:rdf="http://www.w3.org/1999/02/22-rdf-syntax-ns#" xmlns="http://www.w3.org/2000/svg" height="92.638pt" width="282pt" version="1.1" xmlns:cc="http://creativecommons.org/ns#" xmlns:dc="http://purl.org/dc/elements/1.1/" viewBox="0 0 282 92.637756">
 <g>
  <path d="m184.19 0.98314c-22.429 0-38.184 11.924-38.323 28.974-0.14202 12.631 11.267 19.674 19.848 23.872 8.853 4.2916 11.81 7.0495 11.781 10.889-0.088 5.885-7.0841 8.5662-13.585 8.5662-9.0632 0-13.895-1.3235-21.322-4.5898l-2.9448-1.3997-3.172 19.651c5.3027 2.4455 15.095 4.5643 25.275 4.675 23.801 0 39.287-11.787 39.471-29.987 0.0937-10.018-5.9622-17.6-19.056-23.86-7.9044-4.0701-12.792-6.7689-12.719-10.893 0.006-3.644 4.1013-7.5494 12.991-7.5494 7.4244-0.12497 12.764 1.5792 16.968 3.3742l2.0222 1.0089 3.0845-19.036c-4.48-1.7697-11.55-3.6949-20.32-3.6949zm-70.41 1.5315-14.186 87.808h22.665l14.194-87.809h-22.67zm-33.205 0.0852-22.194 59.844-2.366-12.16c-5.527-14.911-17.492-30.552-31.426-36.891l20.302 76.846 24-0.01134 35.69-87.627h-24.006zm164.57 0.00568c-5.4305 0-9.5 1.5479-11.897 7.2881l-33.657 80.458h23.813s3.8934-10.83 4.7739-13.201c2.5988 0 25.727 0.04995 29.027 0.04995 0.70154 3.0618 2.7607 13.15 2.7607 13.15h21.055l-18.359-87.745h-17.516zm1.6019 23.673 1.511 7.5698s4.3569 20.951 5.2658 25.339h-18.822c1.8831-5.0386 9.032-24.544 9.032-24.544-0.13917 0.23858 1.8598-5.0789 3.0129-8.3651z" fill="#0023a0"/>
  <path d="m37.798 2.5538h-36.568l-0.21302 1.511c28.431 7.2712 47.188 25.127 54.998 46.242l-7.947-40.357c-1.366-5.5501-5.345-7.2002-10.27-7.3962" fill="#ffab00"/>
 </g>
</svg>
