<?xml version="1.0" standalone="no"?>
<!DOCTYPE svg PUBLIC "-//W3C//DTD SVG 1.1//EN" "http://www.w3.org/Graphics/SVG/1.1/DTD/svg11.dtd" >
<svg xmlns="http://www.w3.org/2000/svg">
<metadata>Generated by IcoMoon</metadata>
<defs>
<font id="icomoon" horiz-adv-x="1024">
<font-face units-per-em="1024" ascent="960" descent="-64" />
<missing-glyph horiz-adv-x="1024" />
<glyph unicode="&#x20;" horiz-adv-x="512" d="" />
<glyph unicode="&#x21;" glyph-name="chat" d="M336 202.32v133.68h-128v400h624v-400h-262.64l-233.36-133.68zM240 368h128v-109.152l192.496 109.152h239.504v336h-560v-336z" />
<glyph unicode="&#x22;" glyph-name="search" d="M809.696 203.152l-170.432 170.44c31.56 37.408 50.648 85.68 50.648 138.352 0 118.472-96.384 214.856-214.856 214.856-118.48 0-214.856-96.384-214.856-214.856s96.384-214.856 214.856-214.856c52.664 0 100.936 19.080 138.352 50.656l170.432-170.448 25.856 25.856zM296.76 511.944c0 98.304 79.984 178.288 178.288 178.288s178.288-79.984 178.288-178.288c0-98.312-79.976-178.288-178.288-178.288-98.304 0-178.288 79.976-178.288 178.288z" />
<glyph unicode="&#x23;" glyph-name="music" d="M763.74 417.554c0.797 8.449 1.436 15.94 1.436 24.389 0 135.652-110.626 245.483-245.483 245.483s-246.121-109.829-246.121-245.483c0-8.449 1.115-15.94 1.913-24.389-24.389-11.478-40.011-36.661-40.011-66.314v-53.401c0-41.923 30.605-77.789 72.529-77.789h62.804v205.632h-63.762c-0.797 0-1.594 0-2.233 0-0.797 4.783-0.797 11.158-0.797 17.216 0 118.916 96.758 214.719 214.877 214.719s214.877-96.439 214.877-214.559c0-6.058 0-12.593-0.797-17.376-1.594 0-2.233 0-3.826 0h-60.255v-205.632h61.212c41.923 0 75.876 35.867 75.876 77.789v53.401c0 30.446-17.055 54.835-42.242 66.314zM340.522 395.397v-145.059h-33.475c-25.186 0-43.039 22.317-43.039 47.502v53.401c0 25.186 17.853 44.155 43.039 44.155h33.475zM775.696 297.841c0-25.186-20.563-47.502-45.589-47.502h-30.925v145.059h30.925c25.186 0 45.589-18.971 45.589-44.155v-53.401z" />
<glyph unicode="&#x25;" glyph-name="calendar" d="M462.208 297.496h29.24v185.696h-47.080v39.872h97.976v-225.568h28.488v-44.432h-108.624zM624 664v64h-32v-64h-176v64h-32v-64h-136v-512h512v512h-136zM728 184h-448v448h104v-40h32v40h176v-40h32v40h104v-448z" />
<glyph unicode="&#x26;" glyph-name="video" d="M682.688 183.488h-520v528h520v-528zM194.688 215.488h456v464h-456v-464zM898.688 254.872l-184 91.008v206.92l184 91v-388.928zM746.688 365.76l120-59.352v285.872l-120-59.352v-167.168zM422.184 584.312c77.232 0 140.064-62.832 140.064-140.056 0-77.232-62.832-140.064-140.064-140.064s-140.064 62.832-140.064 140.064c0.008 77.224 62.84 140.056 140.064 140.056zM422.184 616.312c-95.032 0-172.064-77.032-172.064-172.056 0-95.032 77.032-172.064 172.064-172.064s172.064 77.032 172.064 172.064c0 95.024-77.032 172.056-172.064 172.056v0z" />
<glyph unicode="&#x27;" glyph-name="play" d="M0 961.728h1024v-1024h-1024zM388.992 724.8v-550.080l325.696 267.776z" />
<glyph unicode="&#x28;" glyph-name="twitterIcon_new" d="M0 960v-1024h1024v1024h-1024zM773.172 573.414c0-5.172 0-10.214 0-15.386 0-163.814-125.414-350.772-350.772-350.772-69.172 0-135.628 20.428-189.414 56.372 10.214 0 20.428-2.586 30.772-2.586 58.828 0 110.028 20.428 153.6 53.786-53.786 0-99.814 35.814-115.2 87.014 5.172-5.172 12.8-5.172 20.428-5.172 10.214 0 20.428 2.586 33.228 5.172-56.372 10.214-99.814 61.414-99.814 120.372 0 0 0 0 0 2.586 30.772-10.214 35.814-15.386 56.372-15.386-33.228 23.014-53.786 58.828-53.786 102.4 0 23.014 5.172 43.572 17.972 61.414 61.414-74.214 151.014-122.828 253.414-128-2.586 10.214-2.586 17.972-2.586 28.186 0 69.172 56.372 122.828 122.828 122.828 35.814 0 66.586-15.386 89.6-38.4 28.186 5.172 53.786 15.386 79.386 30.772-10.214-28.186-28.186-53.786-53.786-69.172 25.6 2.586 48.614 10.214 71.628 20.428-17.842-28.057-40.857-48.485-63.871-66.457z" />
<glyph unicode="&#x29;" glyph-name="close" d="M750.808 664.16l-25.856 25.856-211.072-211.072-211.072 211.072-25.856-25.856 211.072-211.072-219.072-219.072 25.856-25.856 219.072 219.072 219.072-219.072 25.856 25.856-219.064 219.072z" />
<glyph unicode="&#x2a;" glyph-name="refresh" d="M521.832 708.688c-142.264 0-258-115.744-258-258s115.736-258 258-258c136.8 0 249.008 107.040 257.432 241.752l79.28-79.28-0.232 47.888-94.304 94.288-94.816-94.808-0.568-45.216 78.672 78.664c-7.616-117.776-105.792-211.288-225.464-211.288-124.616 0-226 101.392-226 226 0 124.616 101.384 226 226 226 79.16 0 148.712-41.064 189.072-102.864l23.040 23.040c-46.584 67.408-124.152 111.824-212.112 111.824z" />
<glyph unicode="&#x2b;" glyph-name="plus" d="M740 484h-224v224h-32v-224h-232v-32h232v-224h32v224h224z" />
<glyph unicode="&#x2c;" glyph-name="user" d="M497.6 716.8c64.8 0 118.4-52.8 118.4-117.6s-52.8-118.4-118.4-118.4-118.4 52.8-118.4 118.4 53.6 117.6 118.4 117.6zM497.6 748.8c-83.2 0-150.4-67.2-150.4-149.6s67.2-150.4 150.4-150.4 150.4 67.2 150.4 150.4-67.2 149.6-150.4 149.6v0zM272.8 152h-32l29.6 164c8 60.8 47.2 100 102.4 100h256c56 0 94.4-39.2 103.2-100.8l28-163.2h-32l-27.2 158.4c-6.4 45.6-32 73.6-72 73.6h-256c-40 0-64.8-28-72-72.8l-28-159.2zM396.8 158.4l-32.8-0.8 16 106.4h32.8zM603.2 158.4l-16 105.6h32l16-107.2z" />
<glyph unicode="&#x2d;" glyph-name="minus" d="M324 484h384v-32h-384z" />
<glyph unicode="&#x2e;" glyph-name="facebookIcon" d="M0 960h1024v-1024h-1024v1024zM729.6-64v399.36h133.12l20.48 156.16h-153.6v99.84c0 46.080 12.8 76.8 76.8 76.8h81.92v138.24c-15.36 2.56-64 5.12-120.32 5.12-117.76 0-199.68-71.68-199.68-204.8v-115.2h-133.12v-156.16h135.68v-399.36h158.72z" />
<glyph unicode="&#x2f;" glyph-name="embed" d="M432.6 180h-34.12l201 544h34zM720.792 268h-45.504l180.504 179.744-181.68 180.256h45.528l181.936-181.88zM301.56 628h45.504l-180.504-179.744 181.68-180.256h-45.528l-181.936 181.88z" />
<glyph unicode="&#x30;" glyph-name="calculator" d="M728 768v-624h-440v624h440zM758.4 800h-502.4v-688h504v684.8l-1.6 3.2zM624 672v-64h-240v64h240zM656 704h-304v-128h304v128zM448 488v-64h-64v64h64zM480 520h-128v-128h128v128zM624 488v-64h-64v64h64zM656 520h-128v-128h128v128zM448 304v-64h-64v64h64zM480 336h-128v-128h128v128zM624 304v-64h-64v64h64zM656 336h-128v-128h128v128z" />
<glyph unicode="&#x31;" glyph-name="checkmark" d="M319.52 89.12l-230.208 230.208 59.68 59.648 170.56-170.56 578.112 578.176 59.648-59.648z" />
<glyph unicode="&#x32;" glyph-name="radio-checked" d="M527.664 660.52c117.216 0 212.576-94.016 212.576-209.584 0-115.56-95.36-209.576-212.576-209.576s-212.576 94.008-212.576 209.576c0 115.56 95.368 209.584 212.576 209.584zM527.664 692.52c-135.080 0-244.576-108.16-244.576-241.584s109.496-241.576 244.576-241.576c135.080 0 244.576 108.16 244.576 241.576s-109.496 241.584-244.576 241.584v0zM415.856 450.936c0-61.75 50.058-111.808 111.808-111.808s111.808 50.058 111.808 111.808c0 61.75-50.058 111.808-111.808 111.808s-111.808-50.058-111.808-111.808z" />
<glyph unicode="&#x34;" glyph-name="see_details" d="M869.774 446.332c-98.128 128.534-227.884 198.342-365.538 198.342h-1.734c-137.464 0-265.936-70.322-361.878-198.020l-0.354 0.192c0.032-0.034 0.064 0.16 0.064 0.13-0.032-0.034-0.064 0.066-0.064 0.034l0.354-2.504c95.944-127.702 224.414-201.2 361.878-201.2h1.734c137.654 0 267.408 73.048 365.538 201.586l-0.034 0.74 0.034 0.74v-0.034zM504.204 275.408h-1.574c-120.252 0-233.566 61.138-321.42 168.578 87.852 107.44 201.166 168.578 321.452 168.578h1.574c120.346 0 234.692-60.558 324.438-168.578-89.778-108.020-204.092-168.578-324.438-168.578h-0.034zM505.038 586.65c-77.578 0-140.48-62.904-140.48-140.48s62.904-140.48 140.48-140.48c77.576 0 140.48 62.904 140.48 140.48 0 77.578-62.904 140.48-140.48 140.48v0z" />
<glyph unicode="&#x36;" glyph-name="radio-unchecked" d="M528.559 692.261c-135.221 0-244.836-108.274-244.836-241.831s109.615-241.832 244.836-241.832c135.221 0 244.836 108.274 244.836 241.832s-109.616 241.831-244.836 241.831v0zM528.559 660.102c117.256 0 212.677-94.079 212.677-209.672 0-115.625-95.421-209.672-212.677-209.672s-212.677 94.047-212.677 209.672c0 115.625 95.421 209.672 212.677 209.672v0zM528.559 562.347c-61.826 0-111.916-50.125-111.916-111.916s50.125-111.917 111.916-111.917c61.793 0 111.917 50.093 111.917 111.917 0 61.826-50.093 111.916-111.917 111.916v0zM528.559 530.379c44.082 0 79.949-35.866 79.949-79.949s-35.866-79.949-79.949-79.949c-44.083 0-79.949 35.865-79.949 79.949s35.866 79.949 79.949 79.949v0z" />
<glyph unicode="&#x38;" glyph-name="more_like" d="M513.88 345.664c-59.232 0-107.424 48.184-107.424 107.424s48.192 107.432 107.424 107.432 107.432-48.192 107.432-107.432c0-59.24-48.192-107.424-107.432-107.424zM513.88 528.512c-41.592 0-75.424-33.832-75.424-75.432 0-41.584 33.832-75.424 75.424-75.424s75.432 33.832 75.432 75.424c0 41.6-33.832 75.432-75.432 75.432zM239.592 345.664c-59.232 0-107.424 48.184-107.424 107.424s48.192 107.432 107.424 107.432c59.24 0 107.432-48.192 107.432-107.432s-48.192-107.424-107.432-107.424zM239.592 528.512c-41.592 0-75.424-33.832-75.424-75.432 0-41.584 33.832-75.424 75.424-75.424s75.432 33.832 75.432 75.424c0 41.6-33.84 75.432-75.432 75.432zM788.168 345.664c-59.232 0-107.424 48.184-107.424 107.424s48.184 107.432 107.424 107.432 107.432-48.192 107.432-107.432c-0.008-59.24-48.2-107.424-107.432-107.424zM788.168 528.512c-41.584 0-75.424-33.832-75.424-75.432 0-41.584 33.832-75.424 75.424-75.424s75.432 33.832 75.432 75.424c-0.008 41.6-33.84 75.432-75.432 75.432z" />
<glyph unicode="&#x39;" glyph-name="arrow-down" d="M525.653 245.348v471.167h-36.409v-469.647l-200.249 201.387v-52.674l219.227-219.391 217.68 217.725v52.82z" />
<glyph unicode="&#x3a;" glyph-name="arrow-up" d="M498.347 650.652v-471.167h36.409v469.647l200.249-201.387v52.674l-219.227 219.391-217.68-217.725v-52.82z" />
<glyph unicode="&#x3b;" glyph-name="arrow-left" d="M309.348 434.347h471.167v36.409h-469.647l201.387 200.249h-52.674l-219.391-219.227 217.725-217.68h52.82z" />
<glyph unicode="&#x3c;" glyph-name="share" d="M857.616 711.96l-242.432-240.48 22.632-22.632 241.488 241.48-0.208-210.472 33.2 32.736v232.2h-222.752l-32.832-32.832zM880 312v-128h-736v528h336l32 32h-400v-592h800v192z" />
<glyph unicode="&#x3d;" glyph-name="tumblrIcon" d="M0 960h1024v-1024h-1024v1024zM673.28 276.48c-12.8-5.12-35.84-10.24-51.2-10.24-51.2-2.56-61.44 35.84-61.44 64v199.68h128v97.28h-128v158.72c0 0-92.16 0-94.72 0s-5.12-2.56-5.12-5.12c-5.12-48.64-28.16-138.24-125.44-171.52v-81.92h64v-207.36c0-71.68 53.76-174.080 192-171.52 46.080 0 99.84 20.48 110.080 38.4l-28.16 89.6z" />
<glyph unicode="&#x3f;" glyph-name="download_comp" d="M340 140h344v-32h-344zM113.312 796.52v-592h226.688v32h-194.688v528h736v-528h-197.312v-32h229.312v592zM532 239.008v380.992h-32v-379.664l-160 160.296v-46.304l175.448-176.104 168.552 169.096v46.432z" />
<glyph unicode="&#x44;" glyph-name="download" d="M316 212h384v-32h-384zM524 307.848v416.152h-32v-414.816l-176 177v-46.296l192.68-192.824 191.32 191.36v46.424z" />
<glyph unicode="&#xe60;" glyph-name="license_info_ic" d="M511.44-75.68c-282 0-511.44 229.44-511.44 511.44s229.44 511.44 511.44 511.44 511.44-229.44 511.44-511.44-229.44-511.44-511.44-511.44zM511.44 919.52c-266.72 0-483.76-217.040-483.76-483.76s217.040-483.76 483.76-483.76 483.76 217.040 483.76 483.76-217.040 483.76-483.76 483.76zM460.72 676.96v96.64h102v-96.64h-102zM562.72 590.56v-480.4h-102v480.4h102z" />
<glyph unicode="&#x22c0;" glyph-name="chevron-up" d="M541.688 546.536l166.312-166.536v-44.912l-192.584 192.528-191.416-192.528v46.24l191.52 191.352z" />
<glyph unicode="&#x22c1;" glyph-name="chevron-down" d="M490.312 361.24l-166.312 166.536v44.912l192.584-192.528 191.416 192.528v-46.24l-191.52-191.352z" />
<glyph unicode="&#x25b8;" glyph-name="play-alternate" d="M307.251 683.52l-0.051-471.040 409.6 235.52z" />
<glyph unicode="&#x27e8;" glyph-name="chevron-left" d="M423.352 479.576l166.536 166.312h44.912l-192.528-192.584 192.528-191.416h-46.24l-191.352 191.52z" />
<glyph unicode="&#x27e9;" glyph-name="chevron-right" d="M608.648 428.2l-166.536-166.312h-44.912l192.528 192.584-192.528 191.416h46.24l191.352-191.52z" />
<glyph unicode="&#xe000;" glyph-name="bulb-minus" d="M371.616 259.712l1.6 17.664c0.064 0.576 5.152 58.464-3.264 91.328-8.32 32.512-21.12 60.064-39.104 94.016-17.824 33.664-20.384 81.152-20.48 83.168-0.032 119.712 83.072 206.112 197.6 206.112 116.192 0 200.608-85.376 200.832-203.072 0.32-5.504 1.376-38.784-17.76-82.496-5.312-12.128-11.232-23.52-16.992-34.56-10.336-19.904-20.128-38.72-22.208-55.008-3.552-27.52-6.304-77.248-6.336-77.76l-0.672-12.608-273.216-26.784zM339.712 546.944c0.256-4.032 3.040-44.032 17.088-70.592 14.88-28.064 31.584-61.312 41.6-100.416 6.592-25.76 6.208-62.176 5.216-83.648l213.344 20.928c1.056 16.96 3.2 47.232 5.792 67.328 2.752 21.44 13.728 42.464 25.312 64.768 5.504 10.592 11.232 21.568 16.128 32.768 17.312 39.584 15.328 68.768 15.328 69.056l-0.064 1.184c0 102.592-70.56 174.24-171.488 174.24-98.944 0.032-168.096-72.16-168.256-175.616zM400.096 205.472l-11.488 28.416 244.832 23.712-10.656-30.848-222.688-21.28zM430.368 151.936l-11.488 28.16 184.32 17.92-10.496-30.688-162.336-15.392zM612 556h-208v-32h208v32z" />
<glyph unicode="&#xe003;" glyph-name="logo" horiz-adv-x="4382" d="M536.534 497.315c1.638 58.654 33.834 93.061 82.248 93.061 49.275 0 81.182-34.365 82.248-93.061h-164.496zM793.723 428.749v41.288c0 101.744-61.973 195.542-172.77 195.256-115.712 0-184.853-84.541-184.853-219.792 0-135.005 69.181-220.118 179.242-220.118 82.248 0 139.427 26.091 178.544 86.507l-73.4 45.752c-25.395-29.533-47.514-50.094-96.256-50.094-47.595 0-87.654 34.406-88.72 122.552l258.213-1.35zM1391.698 163.614c15.523-2.744 27.811-2.744 42.517-2.744 36.003 0 54.395 10.158 67.011 33.834 10.158 20.931 16.63 32.645 16.63 49.808 0 15.523-8.192 33.834-12.984 50.094l-113.706 363.152h101.744l69.469-261.981h1.68l72.704 261.981h101.334l-135.005-425.942c-44.893-121.118-81.182-154.378-164.126-154.378-25.232 0-36.782 1.72-49.070 2.744l1.762 83.432zM866.181 323.114c0-60.498 29.533-97.443 104.858-97.443 27.771 0 52.224 2.744 80.035 6.512v83.435c-14.704-2.744-30.72-8.15-45.794-8.15-25.395 0-36.782 6.554-36.782 29.533l-1.39 238.139h189.808v-253.379c0-60.498 29.533-97.443 104.858-97.443 27.771 0 53.206 2.744 80.118 6.512v83.435c-14.787-2.744-30.72-8.15-45.794-8.15-25.395 0-36.659 6.554-36.659 29.533l-1.434 239.493h83.354l-0.819 81.757h-83.354l0.819 141.066h-101.090v-140.493h-189.808l-0.042 140.493h-100.966v-474.848zM1819.771 658.083h49.029v-425.165h-49.029zM1819.771 796.323h49.029v-72.704h-49.029zM1975.419 232.918v425.165h49.029v-63.979c43.459 45.67 75.366 72.581 141.68 72.581 47.35 0 90.726-29.942 103.056-77.21 38.461 44.933 79.258 77.21 140.493 77.21 73.77 0 111.984-40.427 111.984-115.63v-318.218h-49.152v323.174c0 47.39-26.091 71.147-73.482 71.147-37.192 0-100.557-40.304-125.419-81.182v-313.63h-49.029v323.174c0 47.39-26.133 71.147-73.686 71.147-37.192 0-100.557-40.304-125.419-81.182v-313.63l-50.054 1.064zM2872.034 334.008c-42.68-43.336-99.286-69.469-144.794-69.469-44.605 0-76.882 26.010-76.882 72.662 0 53.986 26.133 93.142 221.47 136.192l0.245-139.386zM2926.755 232.918c-5.858 28.262-6.554 55.952-6.554 77.291v222.29c0 94.536-45.712 133.243-142.499 133.243-68.813 0-121.118-27.525-158.678-96.461l32.605-19.619c30.72 49.275 73.155 77.291 124.232 77.291 73.032 0 97.443-29.533 97.443-85.565v-29.533c-178.053-39.28-272.998-60.579-272.998-176.619 0-70.819 50.094-111.33 116.818-111.33 65.168 0 104.858 19.498 154.952 59.678l6.635-50.094 48.045-0.573zM3465.789 482.57c1.557 57.507 37.192 144.794 124.437 144.712 73.77-1.557 112.517-57.507 122.552-144.712h-246.989zM3761.152 443.822c0 131.686-54.395 222.166-170.107 222.166-107.806 0-174.858-88.842-174.858-220.118 0-150.2 69.469-220.118 182.354-220.118 81.182 0 122.594 28.344 168.304 103.629l-40.304 21.422c-42.598-67.256-69.469-86.221-124.314-86.221-96.502 0-136.192 83.6-136.192 180.552l295.117-1.312zM3854.378 335.851c40.304-57.507 76.882-72.581 131.85-72.581 54.067 0 95.069 36.003 95.069 81.264 0 124.232-250.266 53.986-250.266 206.029 0 81.182 63.979 115.835 135.045 115.835 71.312 0 116.368-27.525 146.555-76.882l-37.192-26.214c-29.533 39.322-59.925 64.021-111.33 64.021-47.514 0-84.419-22.118-84.419-73.77 0-104.858 250.266-42.64 250.266-207.216 0-76.882-70.533-120.094-147.907-120.094-65.168 0-124.477 25.968-164.168 85.565l36.498 24.043zM272.998 518.37c0-40.304-30.72-69.469-69.469-69.469-43.254 0-73.4 30.72-73.4 69.469 0 39.117 30.187 69.469 73.4 69.469 38.872 0.203 69.469-30.312 69.469-69.469zM22.896 207.074c-2.088-6.472-4.464-17.45-2.907-30.515 2.744-66.888 73.77-98.55 187.843-98.55 135.373 0 196.445 65.168 196.445 125.419 0 169.861-278.242 76.882-278.242 144.794 0 25.232 36.003 26.173 79.134 26.173 107.029 0 159.867 57.507 159.867 137.298 0 32.726-10.158 57.507-22.118 75.325 15.442 10.158 41.493 10.158 65.168 10.158l-1.64 68.323c-48.906 1.762-80.077-11.306-99.574-37.192-26.051 22.118-68.608 37.192-104.858 37.192-110.264 0-167.485-73.277-167.485-147.907 0-51.486 27.771-84.091 62.874-112.517-18.965-5.858-66.274-36.659-66.274-77.496 0-54.395 73.77-76.882 167.731-82.288 75.694-4.752 112.517-23.88 112.517-53.29 0-19.046-23.429-45.507-88.555-47.432-105.595-2.744-116.818 28.344-110.264 60.744l-89.662 1.762zM3182.55 264.704c127.139 0 154.829-34.365 154.829-69.181 0-44.605-45.629-72.581-152.208-72.581-88.064 0-128.778 28.386-128.778 69.469 0.656 37.19 30.598 72.293 126.157 72.293zM3383.050 673.69c-33.834 0-64.389-12.984-88.76-37.192-26.419 17.818-57.917 29.533-98.632 29.533-102.728 0-167.854-59.678-167.854-152.371 0-44.605 22.118-84.541 60.867-111.33-30.72-6.554-63.979-36.003-63.979-72.581 0-36.003 25.272-48.906 56.197-54.395v-1.597c-59.678-22.118-73.77-53.206-73.77-88.842 0-50.094 39.158-100.557 185.098-100.557 145.776 0 193.168 53.206 193.168 115.63 0 69.264-53.206 110.019-179.242 110.019-115.63 0-131.195 12.33-131.195 36.618 0 15.523 12.33 30.72 38.994 40.837 21.218-7.045 41.493-13.149 68.526-13.149 88.842 0 163.758 44.605 163.758 148.357 0 40.755-11.346 65.168-30.064 88.72 17.040 17.122 45.547 19.579 68.28 19.579l-1.392 42.72zM3077.406 518.083c0 65.168 41.493 108.216 110.059 108.216 68.403 0 109.896-34.325 109.896-108.216 0-73.277-41.493-105.84-109.896-105.84-59.432-0.698-110.059 32.438-110.059 105.84zM4323 715.018c0-53.616-44.605-97.443-97.443-97.443-54.067 0-97.443 44.605-97.443 97.443 0 53.739 43.541 97.443 97.443 97.443 53.821 0.411 97.443-43.662 97.443-97.443zM4306.371 715.018c0 47.186-34.898 84.501-81.715 84.501-46.981 0-82.002-37.192-82.002-84.501 0-46.981 35.021-84.296 82.002-84.296 48.25 0.002 81.715 36.947 81.715 84.296zM4204.912 656.896h-16.63l0.944 116.122h44.605c25.968 0 37.192-11.306 37.192-32.112 0-20.931-13.354-29.533-26.419-32.317l32.235-51.61h-17.818l-30.72 51.61h-22.118l-1.27-51.693zM4222.443 721.49c15.237 0 32.235-1.557 32.235 19.538 0 16.63-13.149 17.818-25.314 17.818h-25.232v-38.216l18.31 0.861z" />
<glyph unicode="&#xe005;" glyph-name="menu" d="M168 640h688v-32h-688v32zM168 448h688v-32h-688v32zM168 256h688v-32h-688v32z" />
<glyph unicode="&#xe006;" glyph-name="arrow-right" d="M714.652 465.528h-471.167v-36.409h469.647l-201.387-200.249h52.674l219.391 219.227-217.725 217.68h-52.82z" />
<glyph unicode="&#xe600;" glyph-name="help-alt" d="M507.76 767.771c-176.623-2.364-317.893-147.458-315.529-324.081 2.364-176.519 147.457-317.823 324.081-315.46 176.553 2.364 317.859 147.457 315.46 324.081-2.329 176.553-147.424 317.824-324.011 315.46zM506.82 253.337h-1.773c-27.184 0.799-46.372 20.858-45.608 47.658 0.765 26.315 20.405 45.468 46.719 45.468l1.599-0.035c27.949-0.835 46.928-20.683 46.094-48.248-0.765-26.384-20.127-44.843-47.032-44.843zM621.22 480.398c-6.431-9.073-20.474-20.37-38.202-34.17l-19.536-13.488c-10.707-8.343-17.172-16.164-19.57-23.846-1.947-6.118-2.85-7.682-3.024-20.022l-0.035-3.163h-74.495l0.208 6.326c0.904 25.932 1.564 41.157 12.306 53.776 16.859 19.779 54.054 43.73 55.618 44.738 5.319 4.032 9.803 8.586 13.175 13.453 7.822 10.777 11.263 19.293 11.263 27.6 0 11.575-3.442 22.282-10.22 31.807-6.534 9.212-18.945 13.87-36.881 13.87-17.798 0-29.964-5.666-37.264-17.242-7.544-11.923-11.298-24.403-11.298-37.195v-3.198h-76.823l0.139 3.338c1.982 47.067 18.771 80.924 49.917 100.703 19.536 12.619 43.868 18.979 72.234 18.979 37.16 0 68.585-9.038 93.265-26.836 25.028-18.041 37.716-45.085 37.716-80.333 0-19.744-6.223-38.272-18.493-55.097z" />
<glyph unicode="&#xe601;" glyph-name="info" horiz-adv-x="792" d="M303.030 241.074h56.186v268.778h-56.186v62.26h119.962v-331.038h56.186v-62.26h-176.15v62.26zM359.214 695.11h65.296v-86.556h-65.296v86.556z" />
<glyph unicode="&#xe602;" glyph-name="star" horiz-adv-x="792" d="M682.66 538.764l-215.952 4.266-71.052 203.89-71.052-204.036-215.952-4.266 172.26-130.778-62.668-206.832 177.41 123.866 177.264-123.716-62.668 206.832 172.408 130.778zM522.316 270.736l-126.658 87.968-127.248-87.97 45.014 148.432-123.866 92.824 154.756 2.796 51.34 146.96 50.606-146.224 154.756-2.796-123.13-94.294 44.426-147.694z" />
<glyph unicode="&#xe603;" glyph-name="photosdotcom_128" d="M160 121.080l146.416 148.912v356.032l-146.416 148.92zM216.096 832l146.496-149h299.856l146.488 149zM718.584 626v-358.008l146.416-148.912v655.832zM654.552 219h-286.072l-152.4-155h590.872z" />
<glyph unicode="&#xe604;" glyph-name="gear-icon" d="M702.4 486.4c0 5.6 0 10.4-0.8 16l32.8 36-7.2 26.4-46.4 15.2c-4.8 9.6-10.4 19.2-16 28l10.4 48-19.2 19.2-48-10.4c-8.8 6.4-18.4 11.2-28 16l-15.2 46.4-26.4 7.2-36-32.8c-5.6 0-10.4 0.8-16 0.8s-10.4 0-16-0.8l-36 32.8-26.4-7.2-15.2-46.4c-9.6-4.8-19.2-10.4-28-16l-48 10.4-19.2-19.2 10.4-48c-6.4-8.8-11.2-18.4-16-28l-46.4-15.2-7.2-26.4 32.8-36c0-5.6-0.8-10.4-0.8-16s0-10.4 0.8-16l-32.8-36 7.2-26.4 46.4-15.2c4.8-9.6 10.4-19.2 16-28l-10.4-48 19.2-19.2 48 10.4c8.8-6.4 18.4-11.2 28-16l15.2-46.4 26.4-7.2 36 32.8c5.6 0 10.4-0.8 16-0.8s10.4 0 16 0.8l36-32.8 26.4 7.2 15.2 46.4c9.6 4.8 19.2 10.4 28 16l48-10.4 19.2 19.2-10.4 48c6.4 8.8 11.2 18.4 16 28l46.4 15.2 7.2 26.4-32.8 36c0 4.8 0.8 10.4 0.8 16zM486.4 300.8c-102.4 0-185.6 83.2-185.6 185.6s83.2 185.6 185.6 185.6c102.4 0 185.6-83.2 185.6-185.6-0.8-102.4-83.2-185.6-185.6-185.6z" />
<glyph unicode="&#xe605;" glyph-name="heart-full" d="M834.024 533.544c0 98.624-79.96 178.584-178.608 178.584-58.776 0-110.752-28.512-143.288-72.336-32.56 43.816-84.528 72.336-143.304 72.336-98.624 0-178.584-79.96-178.584-178.584 0-54.52 24.496-103.24 62.984-136l-0.264-0.24 259.4-214.96 251.84 209.76c42.36 32.648 69.824 83.768 69.824 141.44z" />
<glyph unicode="&#xe606;" glyph-name="heart-empty" d="M655.424 680.128c80.832 0 146.624-65.76 146.624-146.592 0-45.696-20.896-88-57.376-116.096l-0.96-0.768-231.424-192.736-217.952 180.64-20.384 17.344c-32.864 27.968-51.712 68.672-51.712 111.648 0 80.832 65.76 146.592 146.592 146.592 46.688 0 89.568-21.664 117.632-59.424l25.696-34.592 25.696 34.592c28.032 37.76 70.88 59.424 117.6 59.424zM655.424 712.128c-58.784 0-110.752-28.512-143.296-72.32-32.576 43.808-84.544 72.352-143.296 72.352-98.624 0-178.592-79.968-178.592-178.592 0-54.528 24.512-103.232 62.976-136l-0.256-0.256 259.392-214.976 251.84 209.76c42.368 32.64 69.824 83.776 69.824 141.44 0 98.624-79.968 178.592-178.624 178.592v0z" />
<glyph unicode="&#xe607;" glyph-name="see_details-disabled" d="M871.2 444c-97.6 128.8-227.2 204-364 204-0.8 0-0.8 0-1.6 0-136.8 0-264.8-76-360.8-203.2v1.6c0 0 0 0.8 0 0.8s0 0 0 0v-4c96-127.2 224-202.4 360.8-202.4 0.8 0 0.8 0 1.6 0 136.8 0 266.4 74.4 364 203.2v0 0zM507.2 272c-0.8 0-0.8 0-1.6 0-120 0-232.8 60.8-320 168 87.2 107.2 200.8 176 320 176 0.8 0 0.8 0 1.6 0 120 0 233.6-68 323.2-176-89.6-108-203.2-168-323.2-168zM508 554.4c60 0 108-48.8 108-108s-48-108.8-108-108.8-108 48.8-108 108.8 48 108 108 108zM508 586.4c-77.6 0-140-62.4-140-140s62.4-140 140-140 140 62.4 140 140-62.4 140-140 140v0z" />
<glyph unicode="&#xe608;" glyph-name="trash" horiz-adv-x="792" d="M532.24 152.826h-277.654l-59.224 436.098h399.724l-62.842-436.098zM286.39 189.008h214.048l52.752 363.73h-315.932l49.132-363.73zM501.392 661.286l-51.036 68.558h-131.212l-50.084-68.558h-83.792l5.522-36.182h410.58l5.522 36.182h-105.5zM314.576 661.286l23.614 32.372h93.694l23.614-32.372h-140.922z" />
<glyph unicode="&#xe609;" glyph-name="help" horiz-adv-x="1033" d="M845.259 448c0-181.51-147.143-328.653-328.653-328.653s-328.653 147.143-328.653 328.653c0 181.51 147.143 328.653 328.653 328.653s328.653-147.143 328.653-328.653zM431.282 643.928c22.121 12.639 50.562 22.121 82.163 22.121 41.082 0 75.844-9.481 104.285-28.441s41.082-50.562 41.082-88.484c0-25.281-6.322-44.242-18.962-60.042-6.321-9.481-18.962-22.121-41.082-37.922l-18.962-15.801c-9.481-9.481-18.962-18.962-22.121-28.441-3.159-6.322-3.159-18.962-3.159-31.601h-72.683c0 31.601 3.159 53.722 9.481 63.202 6.322 12.639 15.8 25.281 37.922 41.082l15.801 12.639c6.321 6.322 12.639 9.481 15.801 15.801 6.322 9.481 9.481 22.121 9.481 34.762s-3.159 25.281-12.639 37.922c-9.481 12.639-22.121 15.801-44.242 15.801s-34.762-6.322-44.242-22.121c-6.321-12.639-12.639-25.281-12.639-41.082h-79.003c3.159 50.562 22.121 88.484 53.723 110.604zM478.683 334.235h82.163v-79.003h-82.163v79.003z" />
<glyph unicode="&#xe60a;" glyph-name="mosaic-horiz" d="M361.888 960h660.448v-302.944h-660.448v302.944zM719.328 602.496h302.976v-302.944h-302.976v302.944zM367.936 238.976h654.368v-302.976h-654.368v302.976zM-1.664 960h302.944v-302.944h-302.944v302.944zM-1.664 602.496h654.4v-302.944h-654.4v302.944zM-1.664 238.976h302.944v-302.976h-302.944v302.976z" />
<glyph unicode="&#xe60b;" glyph-name="grid" d="M0 960h302.944v-302.944h-302.944v302.944zM363.552 960h302.944v-302.944h-302.944v302.944zM721.024 960h302.976v-302.944h-302.976v302.944zM0 596.448h302.944v-302.944h-302.944v302.944zM363.552 596.448h302.944v-302.944h-302.944v302.944zM721.024 596.448h302.976v-302.944h-302.976v302.944zM0 238.944h302.944v-302.944h-302.944v302.944zM363.552 238.944h302.944v-302.944h-302.944v302.944zM721.024 238.944h302.976v-302.944h-302.976v302.944z" />
<glyph unicode="&#xe60c;" glyph-name="mosaic-vert" d="M361.888 238.976h302.944v-302.976h-302.944v302.976zM-1.696 590.368h302.976v-654.368h-302.976v654.368zM361.888 960h302.944v-654.4h-302.944v654.4zM-1.696 960h302.976v-302.944h-302.976v302.944zM730.304 576.32h292v-640.32h-292v640.32zM730.304 960h292v-293.664h-292v293.664z" />
<glyph unicode="&#xe60d;" glyph-name="twitter_ic" d="M511.44-75.68c-282 0-511.44 229.44-511.44 511.44s229.44 511.44 511.44 511.44 511.44-229.44 511.44-511.44-229.44-511.44-511.44-511.44zM511.44 919.52c-266.72 0-483.76-217.040-483.76-483.76s217.040-483.76 483.76-483.76 483.76 217.040 483.76 483.76-217.040 483.76-483.76 483.76zM429.92 164.72c-60.72 0-119.28 17.12-174.16 50.88l-41.36 25.44 50.48-0.32c46.72 0 86.32 9.92 122.48 30.96-40.8 13.68-67.68 39.44-83.68 79.6l-6.96 17.6 19.28 1.040c-35.12 25.2-52.64 58.24-54.48 101.68l-0.8 17.68 25.68-5.68c-28.88 42.8-31.36 87.12-8.32 137.12l8.64 18.72 13.76-15.36c61.28-68.080 130.72-105.44 212.16-113.76 0.16 1.92 0.32 3.84 0.4 5.68 1.040 13.92 2 27.040 5.52 40.16 15.2 56 65.6 95.2 122.56 95.2 24.56 0 48.32-7.52 68.8-21.84 10-7.040 18.88-10.32 27.84-10.32 7.76 0 16 2.24 28.48 7.68 7.92 3.44 17.92 7.84 33.84 6.4l23.92-2.24-35.52-45.68 50.4-1.36-20.24-20.16c-2.8-3.12-5.52-6.48-8.16-9.84-6.8-8.56-13.92-17.36-23.6-23.92-13.84-9.28-15.76-20.4-16.64-41.84-5.76-143.44-105.36-270.72-242.080-309.44-33.2-9.28-66.32-14.080-98.24-14.080z" />
<glyph unicode="&#xe60e;" glyph-name="tumblr_ic" d="M511.44-75.68c-282 0-511.44 229.44-511.44 511.44s229.44 511.44 511.44 511.44 511.44-229.44 511.44-511.44-229.44-511.44-511.44-511.44zM511.44 919.52c-266.72 0-483.76-217.040-483.76-483.76s217.040-483.76 483.76-483.76 483.76 217.040 483.76 483.76-217.040 483.76-483.76 483.76zM560 146.16h3.76c-125.84 0-167.84 90.24-167.84 153.6v164.24h-71.12v90.72l13.84 3.36c70.56 25.44 93.84 83.040 98.96 129.84 1.040 9.44 11.040 13.040 20.080 13.040h80.32v-118.56h118.48v-118.4h-118.48v-156c0-34.96 26.56-39.040 41.52-39.040h4.96c13.36 0.32 31.76 4.4 39.28 7.92l14.96 6.8 33.52-98.24-3.76-5.76c-13.12-19.28-61.84-34.8-104.32-35.6-1.44 0-2.8 2.080-4.16 2.080z" />
<glyph unicode="&#xe60f;" glyph-name="pinterest_ic" d="M511.44-75.68c-282 0-511.44 229.44-511.44 511.44s229.44 511.44 511.44 511.44 511.44-229.44 511.44-511.44-229.44-511.44-511.44-511.44zM511.44 919.52c-266.72 0-483.76-217.040-483.76-483.76s217.040-483.76 483.76-483.76 483.76 217.040 483.76 483.76-217.040 483.76-483.76 483.76zM464.72 318.32c-17.36-57.84-35.68-175.44-88.32-200.4-26.56 60.64-7.28 123.44 4.32 180.72 13.36 65.84 44.32 128.56 25.68 199.92-4.96 18.96 5.84 49.040 19.92 64 14.56 15.36 43.6 26.96 63.2 23.92 26.4-4.16 37.76-33.76 37.28-52.24-5.52-37.040-32.64-82.32-35.68-113.12-2.16-23.52 2.24-56 23.28-63.92 20.64-7.76 53.12-1.44 73.92 9.92 60.56 32.88 85.2 163.52 47.84 227.68-38.48 66.16-134.24 86.48-210.16 44.72-75.76-41.6-100.96-125.28-65.44-202.8 7.28-15.92 24.96-45.36-2.88-59.040-21.84-4.88-39.12 8.88-51.36 20.88-58.72 57.76-42.72 188.16 29.36 256.88 82.24 78.48 224.080 91.6 319.36 29.6 71.52-46.56 100.56-124.24 82.56-220.8-18.32-97.84-72.8-156.16-155.28-175.12-75.68-17.36-100.48 13.68-117.6 29.2z" />
<glyph unicode="&#xe610;" glyph-name="facebook_ic" d="M439.36 134.88v261.040h-94.96v118.72h94.96v74.4c0 90.16 53.52 139.2 133.92 139.2 38.48 0 79.68-2.88 79.68-4.16v-94.16h-61.12c-43.76 0-57.52-20.8-57.52-51.28v-63.92h112.64l-13.6-118.64h-99.12v-261.040h-94.88zM511.44-75.68c-282 0-511.44 229.44-511.44 511.44s229.44 511.44 511.44 511.44 511.44-229.44 511.44-511.44-229.44-511.44-511.44-511.44zM511.44 919.52c-266.72 0-483.76-217.040-483.76-483.76s217.040-483.76 483.76-483.76 483.76 217.040 483.76 483.76-217.040 483.76-483.76 483.76z" />
<glyph unicode="&#xe611;" glyph-name="embed_ic" d="M511.44-75.68c-282 0-511.44 229.44-511.44 511.44s229.44 511.44 511.44 511.44 511.44-229.44 511.44-511.44-229.44-511.44-511.44-511.44zM511.44 919.52c-266.72 0-483.76-217.040-483.76-483.76s217.040-483.76 483.76-483.76 483.76 217.040 483.76 483.76-217.040 483.76-483.76 483.76zM461.28 172.88c-1.28 0-2.64 0.16-3.92 0.4-10.16 2.16-16.64 12.16-14.48 22.32l105.76 497.52c2.16 10.16 12.16 16.72 22.32 14.48 10.16-2.16 16.64-12.16 14.48-22.32l-105.76-497.52c-1.84-8.8-9.68-14.88-18.4-14.88zM337.92 224.8c-4.8 0-9.68 1.84-13.28 5.52l-188.32 188.4c-7.36 7.36-7.36 19.28 0 26.64l188.24 188.24c7.36 7.36 19.28 7.36 26.64 0s7.36-19.28 0-26.64l-175.040-174.96 175.040-175.040c7.36-7.36 7.36-19.28 0-26.64-3.68-3.68-8.48-5.52-13.28-5.52zM676.56 224.8c-4.8 0-9.68 1.84-13.28 5.52-7.36 7.36-7.36 19.28 0 26.64l175.040 175.040-174.96 174.88c-7.36 7.36-7.36 19.28 0 26.64s19.28 7.36 26.64 0l188.24-188.24c7.36-7.36 7.36-19.28 0-26.64l-188.4-188.4c-3.68-3.6-8.48-5.44-13.28-5.44z" />
<glyph unicode="&#xe612;" glyph-name="morelikethis_128" d="M604.286 695.193v-348.047h-348.047v348.047h348.047zM630.653 721.559h-400.781v-400.781h400.781v400.781zM678.114 576.54h102.832v-102.833h-102.832v102.833zM678.114 427.565h102.832v-102.832h-102.832v102.832zM678.114 279.25h102.832v-102.832h-102.832v102.832zM384.119 277.932h102.832v-102.832h-102.832v102.832zM532.435 277.273h102.832v-102.832h-102.832v102.832z" />
<glyph unicode="&#xe613;" glyph-name="lightbox_empty" d="M363.2 388.8c-0.8 5.6-8 18.4-21.6 36.8l-0.8 1.6c-8 11.2-14.4 23.2-19.2 35.2-5.6 12.8-9.6 25.6-12 39.2-3.2 13.6-4 28-4 41.6s1.6 28 4 41.6c2.4 13.6 7.2 26.4 12 39.2 5.6 12 12 24 19.2 35.2s16 21.6 25.6 30.4c9.6 9.6 20 17.6 30.4 25.6 11.2 7.2 23.2 13.6 35.2 19.2 12.8 5.6 25.6 9.6 39.2 12 27.2 5.6 56 5.6 84 0 13.6-2.4 26.4-7.2 39.2-12 12-5.6 24-12 35.2-19.2s21.6-16 30.4-25.6c9.6-9.6 17.6-20 25.6-30.4 7.2-11.2 13.6-23.2 19.2-35.2 5.6-12.8 9.6-25.6 12-39.2s4-28 4-41.6c0-14.4-1.6-28-4-41.6s-6.4-26.4-12-39.2c-5.6-12.8-11.2-21.6-18.4-32l-3.2-4.8c-4.8-7.2-17.6-26.4-20-32.8l-31.2 8.8c3.2 10.4 12.8 25.6 24 41.6l3.2 4.8c7.2 10.4 12 17.6 16 27.2 4.8 10.4 8 21.6 10.4 32.8s3.2 23.2 3.2 35.2-1.6 24-3.2 35.2c-2.4 11.2-5.6 22.4-10.4 32.8-4 10.4-9.6 20.8-16 29.6-6.4 9.6-13.6 18.4-21.6 26.4s-16.8 15.2-26.4 21.6c-9.6 6.4-19.2 12-29.6 16-10.4 4.8-21.6 8-32.8 10.4-23.2 4.8-48 4.8-71.2 0-11.2-2.4-22.4-5.6-32.8-10.4s-20.8-9.6-29.6-16c-9.6-6.4-18.4-13.6-26.4-21.6s-15.2-16.8-21.6-26.4c-6.4-9.6-12-19.2-16-29.6-4.8-10.4-8-21.6-10.4-32.8s-3.2-23.2-3.2-35.2c0-12 0.8-24 3.2-35.2s5.6-22.4 10.4-32.8c4-10.4 9.6-20 16-29.6l0.8-0.8c12-16.8 25.6-36 27.2-52l-32-4zM620.8 275.2h-217.6c-19.2 0-35.2 16-35.2 35.2v51.2h32v-51.2c0-1.6 1.6-3.2 3.2-3.2h218.4c1.6 0 3.2 1.6 3.2 3.2v48.8h32v-48.8c-0.8-19.2-16.8-35.2-36-35.2zM368 328c0 4 0 8.8 0 13.6 0 11.2 0 24-0.8 32-2.4 17.6-12 32-23.2 48.8v0.8l26.4 17.6 0.8-0.8c12.8-19.2 24.8-36.8 28-61.6 1.6-11.2 1.6-24.8 1.6-36.8 0-4.8 0-8.8 0-12.8l-32.8-0.8zM656 327.2h-32c0 2.4 0 5.6 0 9.6 0 12 0 28 1.6 40.8 3.2 24 15.2 42.4 27.2 60.8l1.6 2.4 26.4-17.6-1.6-2.4c-10.4-16-20-29.6-21.6-46.4-1.6-11.2-1.6-26.4-1.6-36.8 0-4 0-8 0-10.4zM624 208h-224c-8.8 0-16 7.2-16 16s7.2 16 16 16h224c8.8 0 16-7.2 16-16s-7.2-16-16-16zM592 144h-167.2c-8.8 0-16 7.2-16 16s7.2 16 16 16h167.2c8.8 0 16-7.2 16-16s-7.2-16-16-16zM497.6 647.2h32v-241.6h-32v241.6zM392.8 542.4h241.6v-32h-241.6v32z" />
<glyph unicode="&#xe614;" glyph-name="lightbox_full" d="M716 585.6c-2.4 13.6-6.4 26.4-12 39.2-5.6 12-12 24-19.2 35.2s-16 21.6-25.6 30.4c-9.6 9.6-20 17.6-30.4 25.6-11.2 7.2-23.2 13.6-35.2 19.2-12.8 5.6-25.6 9.6-39.2 12-27.2 5.6-56 5.6-84 0-13.6-2.4-26.4-7.2-39.2-12-12-5.6-24-12-35.2-19.2s-21.6-16-30.4-25.6c-9.6-9.6-17.6-20-25.6-30.4-7.2-11.2-13.6-23.2-19.2-35.2-5.6-12.8-9.6-25.6-12-39.2-3.2-13.6-4-28-4-41.6s1.6-28 4-41.6c2.4-13.6 7.2-26.4 12-39.2 4.8-12 11.2-24 19.2-35.2l0.8-1.6c0.8-0.8 1.6-1.6 2.4-3.2v0l0.8-0.8c11.2-16.8 20.8-31.2 23.2-48.8 0.8-4 0.8-8 0.8-12.8v0-25.6c0-2.4 0-4.8 0-7.2v-17.6c0-19.2 16-35.2 35.2-35.2h218.4c19.2 0 35.2 16 35.2 35.2v16.8c0 1.6 0 3.2 0 4.8v26.4c0 5.6 0.8 11.2 0.8 16 0.8 6.4 2.4 12.8 5.6 18.4v0c0 0 0 0 0 0.8 1.6 3.2 2.4 5.6 4 8.8 4.8 8 12 18.4 15.2 24l3.2 4.8c7.2 10.4 12.8 19.2 18.4 32s9.6 25.6 12 39.2c3.2 13.6 4 28 4 41.6 0.8 13.6-0.8 28-4 41.6zM368 488v88h288v-88h-288zM624 240h-224c-8.8 0-16-7.2-16-16s7.2-16 16-16h224c8.8 0 16 7.2 16 16s-7.2 16-16 16zM592 176h-167.2c-8.8 0-16-7.2-16-16s7.2-16 16-16h167.2c8.8 0 16 7.2 16 16s-7.2 16-16 16z" />
<glyph unicode="&#xe615;" glyph-name="cart_empty" d="M403.2 336h374.4l123.2 296h-611.2l-41.6 104h-120v-32h96.8l145.6-353.6-59.2-56c-1.6 0-3.2 0.8-4.8 0.8-36 0-65.6-29.6-65.6-65.6s29.6-65.6 65.6-65.6c36 0 65.6 25.6 65.6 62.4 0 6.4-0.8 14.4-2.4 14.4h209.6c-1.6 0-2.4-8-2.4-14.4 0-36 29.6-64 65.6-64s65.6 30.4 65.6 67.2c0 36-29.6 62.4-65.6 62.4-16.8 0-31.2-3.2-43.2-19.2h-250.4c-1.6 8-3.2 4-4.8 5.6l59.2 57.6zM301.6 600h551.2l-96.8-232h-360l-94.4 232zM305.6 196c-18.4 0-33.6 15.2-33.6 33.6s15.2 33.6 33.6 33.6c18.4 0 33.6-15.2 33.6-33.6s-15.2-33.6-33.6-33.6zM641.6 263.2c18.4 0 33.6-15.2 33.6-33.6s-15.2-33.6-33.6-33.6-33.6 15.2-33.6 33.6c0 18.4 15.2 33.6 33.6 33.6zM641.6 163.2c-36.8 0-66.4 29.6-66.4 66.4s29.6 66.4 66.4 66.4c36.8 0 66.4-29.6 66.4-66.4 0-36-29.6-66.4-66.4-66.4zM641.6 264.8c-19.2 0-34.4-15.2-34.4-34.4s15.2-34.4 34.4-34.4 34.4 15.2 34.4 34.4-15.2 34.4-34.4 34.4zM305.6 163.2c-36.8 0-66.4 29.6-66.4 66.4s29.6 66.4 66.4 66.4c36.8 0 66.4-29.6 66.4-66.4 0.8-36-29.6-66.4-66.4-66.4zM305.6 264.8c-19.2 0-34.4-15.2-34.4-34.4s15.2-34.4 34.4-34.4 34.4 15.2 34.4 34.4-15.2 34.4-34.4 34.4z" />
<glyph unicode="&#xe616;" glyph-name="cart_full" d="M403.2 336h374.4l123.2 296h-611.2l-41.6 104h-120v-32h96.8l145.6-353.6-59.2-56c-1.6 0-3.2 0.8-4.8 0.8-36 0-65.6-29.6-65.6-65.6s29.6-65.6 65.6-65.6c36 0 65.6 25.6 65.6 62.4 0 6.4-0.8 14.4-2.4 14.4h209.6c-1.6 0-2.4-8-2.4-14.4 0-36 29.6-64 65.6-64s65.6 30.4 65.6 67.2c0 36-29.6 62.4-65.6 62.4-16.8 0-31.2-3.2-43.2-19.2h-250.4c-1.6 8-3.2 4-4.8 5.6l59.2 57.6zM301.6 600h551.2l-96.8-232h-360l-94.4 232zM305.6 196c-18.4 0-33.6 15.2-33.6 33.6s15.2 33.6 33.6 33.6c18.4 0 33.6-15.2 33.6-33.6s-15.2-33.6-33.6-33.6zM641.6 263.2c18.4 0 33.6-15.2 33.6-33.6s-15.2-33.6-33.6-33.6-33.6 15.2-33.6 33.6c0 18.4 15.2 33.6 33.6 33.6zM641.6 163.2c-36.8 0-66.4 29.6-66.4 66.4s29.6 66.4 66.4 66.4c36.8 0 66.4-29.6 66.4-66.4 0-36-29.6-66.4-66.4-66.4zM641.6 264.8c-19.2 0-34.4-15.2-34.4-34.4s15.2-34.4 34.4-34.4 34.4 15.2 34.4 34.4-15.2 34.4-34.4 34.4zM305.6 163.2c-36.8 0-66.4 29.6-66.4 66.4s29.6 66.4 66.4 66.4c36.8 0 66.4-29.6 66.4-66.4 0.8-36-29.6-66.4-66.4-66.4zM305.6 264.8c-19.2 0-34.4-15.2-34.4-34.4s15.2-34.4 34.4-34.4 34.4 15.2 34.4 34.4-15.2 34.4-34.4 34.4zM278.4 616l595.2-1.6-112-262.4-373.6-1.6zM348 227.2c0-26.951-21.849-48.8-48.8-48.8s-48.8 21.849-48.8 48.8c0 26.951 21.849 48.8 48.8 48.8s48.8-21.849 48.8-48.8zM688.8 232c0-26.951-21.849-48.8-48.8-48.8s-48.8 21.849-48.8 48.8c0 26.951 21.849 48.8 48.8 48.8s48.8-21.849 48.8-48.8z" />
<glyph unicode="&#xe617;" glyph-name="Cart_128-01" d="M777.6 344l123.2 296h-611.2l-41.6 104h-112v-32h88.8l145.6-357.6-58.4-56.8c-1.6 0-4 0-5.6 0-36.8 0-67.2-30.4-67.2-67.2s29.6-67.2 67.2-67.2 67.2 32 67.2 68.8c0 4.8-0.8 8.8-1.6 16.8h188c-0.8-8-1.6-11.2-1.6-16.8 0-36.8 29.6-68 67.2-68 36.8 0 67.2 29.6 67.2 66.4s-29.6 68.8-67.2 68.8c-18.4 0-36-10.4-48-18.4h-224c-2.4 0-4.8 4.8-8 7.2l57.6 56.8h374.4zM624 264c19.2 0 34.4-15.2 34.4-34.4s-15.2-34.4-34.4-34.4c-19.2 0-34.4 15.2-34.4 34.4s15.2 34.4 34.4 34.4zM272 229.6c0 18.4 15.2 33.6 33.6 33.6s33.6-15.2 33.6-33.6-15.2-33.6-33.6-33.6-33.6 15.2-33.6 33.6zM301.6 608h551.2l-96.8-232h-360l-94.4 232z" />
<glyph unicode="&#xe618;" glyph-name="Share" d="M567.987 595.302v-23.526h145.562v-400.102h-403.098v400.102h145.562v23.526h-167.962v-447.181h447.898v447.181h-167.962zM609.024 650.726l15.002 15.002-107.75 107.75-107.75-107.75 15.002-15.002 82.15 82.15v-335.59h21.197v335.59l82.15-82.15zM511.437-75.674c-282.010 0-511.437 229.427-511.437 511.437s229.427 511.437 511.437 511.437 511.437-229.427 511.437-511.437-229.427-511.437-511.437-511.437zM511.437 919.526c-266.726 0-483.763-217.037-483.763-483.763s217.037-483.763 483.763-483.763 483.763 217.037 483.763 483.763-217.037 483.763-483.763 483.763z" />
<glyph unicode="&#xe619;" glyph-name="Arrow" d="M512-64c-282.317 0-512 229.683-512 512s229.683 512 512 512 512-229.683 512-512-229.683-512-512-512zM512 917.35c-258.79 0-469.376-210.56-469.376-469.35s210.56-469.35 469.376-469.35c258.79 0 469.35 210.56 469.35 469.376s-210.56 469.325-469.35 469.325zM758.861 456.474h-491.136v-37.939h489.574l-209.818-208.64h54.886l228.582 228.403-226.842 226.79h-55.040l209.792-208.614z" />
<glyph unicode="&#xe61a;" glyph-name="play-circle" d="M512-64c-282.317 0-512 229.683-512 512s229.683 512 512 512 512-229.683 512-512-229.683-512-512-512zM512 917.35c-258.79 0-469.376-210.56-469.376-469.35s210.56-469.35 469.376-469.35c258.79 0 469.35 210.56 469.35 469.376s-210.56 469.325-469.35 469.325zM754.586 448l-375.782-217.6v435.2z" />
<glyph unicode="&#xe61b;" glyph-name="edit" d="M256 192l31.514 141.773 370.202 370.227 110.285-110.285-362.342-362.342-149.658-39.373zM274.509 212.992l67.021 65.562-39.552 39.731-27.469-105.293z" />
<glyph unicode="&#xe61c;" glyph-name="boards" d="M406.24 430.144h86.88v-87.872c0-10.592 8.672-19.296 19.296-19.296s19.296 8.672 19.296 19.296v87.872h86.912c10.624 0 19.328 8.672 19.328 19.296 0 10.656-8.672 19.328-19.328 19.328h-86.912v85.888c0 10.656-8.672 19.328-19.296 19.328-10.656 0-19.296-8.672-19.296-19.328v-85.888h-86.88c-10.624 0-19.296-8.672-19.296-19.328 0-10.592 8.704-19.296 19.296-19.296zM784.672 740h-545.408c-10.592 0-19.296-8.672-19.296-19.296v-545.376c0-10.592 8.672-19.328 19.296-19.328h546.368c10.624 0 19.296 8.704 18.336 19.328v545.376c0 10.624-8.672 19.296-19.296 19.296zM765.344 194.592h-506.752v506.784h506.752v-506.784z" />
<glyph unicode="&#xe61d;" glyph-name="request_preview" d="M368 99.2v168h-120v456h528v-456h-203.2l-204.8-168zM280 299.2h120v-132l161.6 132h182.4v392h-464v-392zM424 619.2l200-124-200-124.8z" />
<glyph unicode="&#xe61e;" glyph-name="Print_icon2" d="M768.853 584.533h-0.853v145.067h-512v-145.067h-102.4v-332.8h102.4v-119.467h512v119.467h93.867v332.8h-93.013zM290.133 695.467h443.733v-110.933h-443.733v110.933zM733.867 166.4h-443.733v179.2h443.733v-179.2zM827.733 285.867h-59.733v93.867h-512v-93.867h-68.267v264.533h640v-264.533zM401.067 243.2h281.6v-34.133h-281.6v34.133zM512 311.467h170.667v-34.133h-170.667v34.133z" />
<glyph unicode="&#xe61f;" glyph-name="boards_active" d="M780.8 740h-541.6c-10.56 0-19.168-8.64-19.168-19.168v-541.632c0-10.528 8.64-19.2 19.168-19.2h541.6c10.56 0 19.2 8.672 19.2 19.2v541.632c0 10.56-8.64 19.168-19.2 19.168zM372.448 432.288c6.688 8.64 19.168 9.6 26.816 2.88l72.864-59.488 153.376 187.936c6.688 8.64 19.168 9.6 26.848 2.88 8.64-6.72 9.6-19.168 2.88-26.848l-164.896-203.264c-3.84-4.768-9.6-6.688-15.328-6.688-3.84 0-8.64 0.928-12.48 4.768l-87.232 70.944c-8.608 6.72-9.568 19.2-2.848 26.88z" />
<glyph unicode="&#xe620;" glyph-name="boards_ic_128" d="M784.8 736h-452c-8 0-15.2-6.4-15.2-15.2v-92.8h-93.6c-8.8 0-16-7.2-16-16v-452c0-8.8 7.2-16 16-16h452c8.8 0 16 7.2 16 16v93.6h92.8c8 0 15.2 6.4 15.2 15.2v452c0 8.8-6.4 15.2-15.2 15.2zM660 176h-420v420h420v-420zM769.6 284h-77.6v328c0 8.8-7.2 16-16 16h-328v77.6h422.4v-421.6z" />
<glyph unicode="&#xe91d;" glyph-name="feed" d="M384 448c0 70.692 57.308 128 128 128s128-57.308 128-128c0-70.692-57.308-128-128-128s-128 57.308-128 128zM664.348 729.474c99.852-54.158 167.652-159.898 167.652-281.474s-67.8-227.316-167.652-281.474c44.066 70.126 71.652 170.27 71.652 281.474s-27.586 211.348-71.652 281.474zM288 448c0-111.204 27.584-211.348 71.652-281.474-99.852 54.16-167.652 159.898-167.652 281.474s67.8 227.314 167.652 281.474c-44.068-70.126-71.652-170.27-71.652-281.474zM96 448c0-171.9 54.404-326.184 140.652-431.722-142.302 90.948-236.652 250.314-236.652 431.722s94.35 340.774 236.652 431.722c-86.248-105.538-140.652-259.822-140.652-431.722zM787.352 879.72c142.298-90.946 236.648-250.312 236.648-431.72s-94.35-340.774-236.648-431.72c86.244 105.536 140.648 259.82 140.648 431.72s-54.404 326.184-140.648 431.72z" />
</font>
</defs>
</svg>
