<svg xmlns="http://www.w3.org/2000/svg" viewBox="0 0 61 61"><style>.lp_teaser-overlay-icons {fill:#606060;}</style><path d="M47.004 29.56c.126.3.2.6.2.91 0 .347-.148.65-.443.916-.294.266-.66.388-1.094.4-.45 0-.784-.132-1.004-.392-.22-.262-.33-.62-.33-1.076 0-.525.118-.933.355-1.224.237-.29.578-.435 1.023-.435.292 0 .5.1.8.245.236.2.4.4.5.663l-.006-.008zm-17.1-.927c-.493 0-.85.235-1.075.706-.225.47-.337 1.25-.337 2.34 0 1.1.1 1.9.3 2.3.224.5.6.7 1.1.702.492 0 .853-.237 1.08-.712.23-.474.343-1.25.343-2.326 0-1.072-.114-1.85-.342-2.33-.24-.48-.598-.723-1.086-.72l.016.04zM61 30.5C61 47.3 47.3 61 30.5 61S0 47.3 0 30.5 13.655 0 30.5 0 61 13.7 61 30.5zM39.434 43.788c0-.158.08-.24.24-.24h4.818c.13 0-7.133-5.712-9.706-7.732.19-.025.352-.083.464-.203.14-.15.21-.357.21-.616 0-.256-.068-.458-.206-.606-.138-.147-.34-.22-.606-.22-.262 0-.464.07-.602.2-.138.14-.207.345-.207.61 0 .2 0 .3.1.4.135 1.9.9 13.4.9 13.21l2.89-4.096.242-.242.24.24 3.853 6.987h.242l.724-.483.243-.242-3.847-6.997.008.03zm-.22-14.688c-.03.36-.045.85-.045 1.467v5.166h1.285v-8h-1.072L37.03 29.58l.646.816c.695-.565 1.106-.9 1.228-1.007.12-.108.216-.21.317-.298l-.007-.036zm14.257 9.23V23.985c0-1.028-.836-1.865-1.864-1.865H7.16c-1.027 0-1.863.836-1.863 1.865V38.33c0 1 .8 1.9 1.9 1.865h25.36l-.1-1.38H7.162c-.265 0-.483-.218-.483-.485V23.985c0-.266.218-.484.484-.484h44.446c.267 0 .5.2.5.487v14.345c0 .268-.218.486-.485.486H41.278c.736.6 1.3 1 1.7 1.38h8.62c1.03 0 1.872-.83 1.872-1.864v-.004zm-6.223-6.468c-.04 1-.273 1.733-.7 2.196-.425.467-1.074.7-1.942.7-.327 0-.655-.045-.98-.137v1.08c.21.1.6.1 1 .08 1.277 0 2.235-.387 2.87-1.165.635-.78.953-1.954.953-3.532 0-.738-.114-1.37-.344-1.897s-.557-.93-.98-1.208c-.423-.277-.92-.417-1.488-.417-.81 0-1.45.247-1.917.7-.47.495-.705 1.16-.705 1.996 0 .8.2 1.4.6 1.818.405.4 1 .7 1.7.7.41 0 .765-.073 1.07-.22s.565-.384.78-.712h.068v.01l.014.01zM31.935 28.61c-.46-.7-1.137-1.05-2.03-1.05-.917 0-1.598.333-2.045 1.003-.447.67-.67 1.71-.67 3.13 0 1.3.2 2.4.7 3.1.46.7 1.1 1 2 1.047.92 0 1.602-.338 2.05-1.013.445-.675.67-1.708.67-3.098-.01-1.358-.245-2.395-.692-3.09l.017-.03zm-10.26-.38v1.364l3.957-1.99-3.955-1.993-.004 1.363H10.795v8.71h9.374v-6.2h-1.353v4.942h-6.665V28.23h9.528-.004zm-3.75 2.04l-4.705-.407 1.38 3.047h2.402l.924-2.61v-.03zm-1.273 2.726c-.22 0-.396.167-.396.374 0 .2.2.4.4.366s.398-.166.398-.367c.01-.206-.162-.368-.386-.374h-.016zm-1.95 0c-.22 0-.4.167-.4.366 0 .2.2.4.4.4.22 0 .397-.167.397-.368-.01-.2-.182-.362-.406-.366l.008-.032zM12.905 29.4c-.148 0-.266.11-.266.25 0 .1.1.2.3.248.15 0 .265-.112.265-.25.002-.146-.118-.248-.26-.25l-.04-.02z" class="lp_teaser-overlay-icons"/></svg>