<svg xmlns="http://www.w3.org/2000/svg" viewBox="0 27.5 76 20.9"><path d="M17.4 39.8c.1.4.1 1 .1 1.9 0 1.7-.1 2.9-.4 3.7-.6 1.5-1.9 2.4-3.9 2.7-1.2.2-2.5.3-4 .3-3 0-5-.2-6.1-.6-1.3-.3-2.2-1.1-2.7-2.5-.3-.7-.4-1.9-.4-3.6h5.2v.3c0 .9.2 1.5.7 1.8.6.2 1 .3 1.3.3h1.9c1.1 0 1.7 0 1.8-.1.5-.1.8-.4 1-.9 0-.1 0-.2.1-.4 0-.2.1-.4.1-.6 0-.9-.3-1.4-1-1.6-.1 0-1.3-.1-3.6-.3-1.7-.2-2.8-.3-3.4-.4-1.7-.3-2.8-.9-3.4-1.9-.5-1-.7-2.3-.7-3.9 0-1.2.1-2.2.4-3.1.3-.7.7-1.3 1.3-1.8.8-.5 1.9-.8 3.3-1 .8-.1 2.1-.1 3.9-.1 1.9 0 3.4.1 4.6.3 2.3.6 3.4 2.3 3.4 5.2v1h-5.2c0-.8-.1-1.4-.3-1.8-.3-.4-1.2-.6-2.7-.6-1.2 0-2.1.1-2.7.3-.4.3-.6.8-.6 1.6 0 .9.2 1.4.6 1.5.4.2.7.3 1 .3l1 .1 4.3.3c1.7.1 3 .5 3.9 1.3.6.4 1 1.2 1.2 2.3zm20.5-6.6v.1l-.1-.1c-1.5-1.8-3.4-2.7-5.6-2.7-2.8 0-4.9 1.2-6.2 3.6h11.6l-.1.1-1.3 3H24.8V38.9h10.4l-.2.1-1.3 3v.1H26c1.6 2.1 3.6 3.1 6.1 3.1 2.2 0 4-.8 5.5-2.5l.1-.1v4h-.1c-1.7 1.2-3.7 1.8-5.9 1.8-2.1 0-4-.6-5.8-1.7-1.9-1.2-3.1-2.7-3.9-4.5h-3.7V42l1.3-3 .1-.1h1.5c-.1-.2-.1-.5-.1-.9 0-.3 0-.5.1-.7h-3.1v-.1l1.5-3H22c.7-1.8 1.9-3.3 3.7-4.6 1.8-1.2 3.8-1.8 5.9-1.8 2.8 0 5.2.9 7.4 2.8v.1l-1.1 2.5zm14.8 9.7c-.9 0-1.9.1-3.1.1h-4.3v5.3h-5.5V27.6h10.4c1.2 0 2.3.1 3.3.3 1.7.6 2.8 1.7 3.4 3.4.3.7.4 2 .4 3.9 0 2.2-.1 3.7-.4 4.6-.8 1.8-2.2 2.8-4.2 3.1zm-1.1-6.8c0-.3.1-.7.1-1 0-.7-.1-1.3-.3-1.9-.1-.5-.5-.8-1.3-1h-4.8v5.9h3.6c1.2 0 1.9 0 2.1-.1.3-.3.5-.7.6-1.2-.1-.1-.1-.3 0-.7zm17.7 8.7h-7.6l-.9 3.6H55l6.2-20.8h8.3L76 48.4h-5.6l-1.1-3.6zm-1.2-4l-2.5-9.1-2.7 9.1h5.2z"/></svg>