<svg xmlns="http://www.w3.org/2000/svg" xmlns:xlink="http://www.w3.org/1999/xlink" version="1.1" x="0px" y="0px" viewBox="0 0 61 61" enable-background="new 0 0 61 61" xml:space="preserve"><style>.lp_teaser-overlay-icons {fill:#606060;}</style><path d="M47.004 29.56c0.126 0.3 0.2 0.6 0.2 0.911c0 0.346-0.148 0.649-0.443 0.915c-0.295 0.266-0.661 0.388-1.095 0.4 c-0.449 0-0.784-0.132-1.004-0.392c-0.221-0.262-0.331-0.62-0.331-1.076c0-0.525 0.119-0.933 0.356-1.224 c0.237-0.291 0.578-0.435 1.023-0.435c0.292 0 0.5 0.1 0.8 0.246c0.236 0.2 0.4 0.4 0.5 0.663L47.004 29.56z M29.904 28.633c-0.493 0-0.851 0.235-1.075 0.706c-0.224 0.471-0.336 1.252-0.336 2.342c0 1.1 0.1 1.9 0.3 2.3 c0.224 0.5 0.6 0.7 1.1 0.701c0.492 0 0.853-0.237 1.081-0.712c0.228-0.474 0.342-1.249 0.342-2.326 c0-1.072-0.114-1.849-0.342-2.329c-0.24-0.48-0.598-0.724-1.086-0.72L29.904 28.633z M61 30.5C61 47.3 47.3 61 30.5 61 S0 47.3 0 30.5S13.655 0 30.5 0S61 13.7 61 30.5z M39.434 43.788c0-0.158 0.079-0.241 0.241-0.241h4.817 c0.13 0-7.133-5.711-9.706-7.731c0.189-0.025 0.352-0.083 0.464-0.203c0.14-0.151 0.211-0.357 0.211-0.616 c0-0.256-0.069-0.458-0.207-0.606c-0.138-0.148-0.34-0.222-0.606-0.222c-0.262 0-0.464 0.071-0.602 0.2 c-0.138 0.142-0.207 0.346-0.207 0.612c0 0.2 0 0.3 0.1 0.399c0.136 1.9 0.9 13.4 0.9 13.209l2.891-4.095 l0.242-0.242l0.24 0.24l3.853 6.987h0.242l0.724-0.482l0.242-0.242l-3.847-6.997L39.434 43.788z M39.213 29.1 c-0.029 0.361-0.044 0.85-0.044 1.467v5.166h1.286v-8.001h-1.072l-2.353 1.849l0.646 0.815c0.695-0.565 1.106-0.901 1.228-1.007 c0.12-0.107 0.216-0.208 0.317-0.297L39.213 29.056z M53.471 38.33V23.985c0-1.028-0.837-1.865-1.865-1.865H7.161 c-1.028 0-1.864 0.836-1.864 1.865V38.33c0 1 0.8 1.9 1.9 1.865h25.359l-0.098-1.38H7.161 c-0.266 0-0.484-0.218-0.484-0.485V23.985c0-0.266 0.218-0.484 0.484-0.484h44.445c0.267 0 0.5 0.2 0.5 0.486v14.345 c0 0.268-0.218 0.486-0.485 0.486H41.277c0.736 0.6 1.3 1 1.7 1.381h8.621c1.028 0 1.871-0.83 1.871-1.865 L53.471 38.33z M47.247 31.862c-0.039 1-0.273 1.733-0.7 2.196c-0.425 0.467-1.074 0.7-1.942 0.7c-0.327 0-0.655-0.045-0.98-0.137 V35.7c0.211 0.1 0.6 0.1 1 0.081c1.277 0 2.235-0.388 2.869-1.166c0.636-0.779 0.954-1.954 0.954-3.532 c0-0.738-0.114-1.37-0.344-1.897s-0.557-0.929-0.98-1.208c-0.423-0.277-0.919-0.417-1.488-0.417c-0.809 0-1.45 0.246-1.917 0.7 c-0.468 0.494-0.704 1.159-0.704 1.995c0 0.8 0.2 1.4 0.6 1.818c0.405 0.4 1 0.7 1.7 0.7 c0.409 0 0.765-0.073 1.07-0.22s0.565-0.384 0.781-0.712h0.067v0.01L47.247 31.862z M31.935 28.609c-0.46-0.7-1.137-1.05-2.031-1.05 c-0.916 0-1.597 0.334-2.044 1.004c-0.447 0.669-0.67 1.71-0.67 3.131c0 1.3 0.2 2.4 0.7 3.1 c0.46 0.7 1.1 1 2 1.046c0.919 0 1.602-0.338 2.05-1.013c0.445-0.675 0.669-1.708 0.669-3.098 c-0.01-1.357-0.244-2.394-0.691-3.089L31.935 28.609z M21.676 28.231v1.363l3.956-1.989l-3.955-1.994l-0.004 1.362H10.795v8.711 h9.374v-6.2h-1.352v4.941h-6.665v-6.194h9.528L21.676 28.231z M17.926 30.271l-4.706-0.408l1.381 3.047h2.401L17.926 30.3 L17.926 30.271z M16.652 32.996c-0.219 0-0.396 0.167-0.396 0.374c0 0.2 0.2 0.4 0.4 0.366s0.398-0.166 0.398-0.367 c0.01-0.205-0.162-0.367-0.386-0.373H16.652z M14.702 32.996c-0.22 0-0.399 0.167-0.399 0.366c0 0.2 0.2 0.4 0.4 0.4 c0.22 0 0.396-0.167 0.396-0.368c-0.008-0.199-0.181-0.362-0.405-0.366L14.702 32.996z M12.905 29.4 c-0.148 0-0.266 0.11-0.266 0.25c0 0.1 0.1 0.2 0.3 0.248c0.15 0 0.266-0.112 0.266-0.25c0.002-0.146-0.118-0.248-0.26-0.25 L12.905 29.379z" class="lp_teaser-overlay-icons"/></svg>
