<svg xmlns="http://www.w3.org/2000/svg" viewBox="0 0 339.8 170.02">
        <path d="M334.65 101h-1.31v3.59h-.64V101h-1.31v-.53h3.25zm1.31 3.59h-.64v-4.12h1l1.23 3.13 1.21-3.13h1v4.12h-.64v-3.48l-1.37 3.48h-.43l-1.32-3.5zM115.46 104.53L132.05 1.79h26.53l-16.59 102.74h-26.53M238.21 4.31A65.69 65.69 0 0 0 214.44 0c-26.23 0-44.69 13.94-44.84 33.91-.17 14.77 13.17 23 23.23 27.91 10.34 5 13.81 8.25 13.77 12.75-.07 6.88-8.25 10-15.88 10-10.62 0-16.26-1.55-25-5.39l-3.41-1.64-3.71 23c6.19 2.86 17.65 5.35 29.56 5.48 27.87 0 46-13.77 46.2-35.09.09-11.71-7-20.59-22.28-27.92-9.27-4.76-15-7.92-14.89-12.74 0-4.27 4.81-8.84 15.2-8.84a46.64 46.64 0 0 1 19.85 3.95l2.38 1.18 3.59-22.27M306.27 1.89h-20.5c-6.36 0-11.12 1.82-13.9 8.52l-39.4 94.16h27.86s4.55-12.67 5.58-15.45l34 .05c.79 3.59 3.23 15.39 3.23 15.39h24.62L306.27 1.89M273.54 68.1c2.2-5.91 10.57-28.72 10.57-28.72-.15.27 2.19-6 3.53-9.8l1.79 8.86s5.08 24.56 6.13 29.66zM93.2 1.88l-26 70-2.75-14.2c-4.84-16.41-19.9-34.19-36.75-43.1l23.75 89.86h28.08L121.31 1.88H93.2" fill="#0023a0"/>
        <path d="M43.13 1.81H.35L0 3.94C33.29 12.45 55.31 33 64.45 57.68l-9.3-47.21C53.56 4 48.89 2 43.13 1.81z" fill="#ffab00"/>
        <path d="M218 135.75q6.38 0 9.67 3.5t3.29 9.6a26 26 0 0 1-1.39 8.76 19.62 19.62 0 0 1-3.89 6.67 16.87 16.87 0 0 1-6 4.25 19.7 19.7 0 0 1-7.78 1.47h-13.15l7.25-34.25zm-6 30.43a13.18 13.18 0 0 0 6.36-1.46 13.81 13.81 0 0 0 4.51-3.84 16.63 16.63 0 0 0 2.69-5.4 21.7 21.7 0 0 0 .89-6.14 16.27 16.27 0 0 0-.41-3.65 7.83 7.83 0 0 0-1.46-3.12 7.43 7.43 0 0 0-2.9-2.16 11.64 11.64 0 0 0-4.68-.82h-7.3l-5.7 26.59zM263.41 135.75l-.77 3.84h-19.06l-2.3 10.9H259l-.77 3.84h-17.77L238 166.18h19.3l-.9 3.82h-23.86l7.25-34.27zM282.8 135.75q5 0 7.3 2.16a8 8 0 0 1 2.26 6 8.94 8.94 0 0 1-1.75 5.3 8.08 8.08 0 0 1-2 1.92 6.82 6.82 0 0 1-2.74 1v.1a6.93 6.93 0 0 1 3.74 2.52 7.41 7.41 0 0 1 1.39 4.58 10.15 10.15 0 0 1-.94 4.42 9.64 9.64 0 0 1-2.59 3.34 12 12 0 0 1-3.86 2.11 14.77 14.77 0 0 1-4.75.74h-16.99l7.13-34.19zm-4.7 30.43a19.63 19.63 0 0 0 2.26-.17 8 8 0 0 0 2.74-.86 6.7 6.7 0 0 0 2.33-2 6.15 6.15 0 0 0 1-3.7 5.3 5.3 0 0 0-.58-2.64 3.9 3.9 0 0 0-1.56-1.54 6.93 6.93 0 0 0-2.26-.72 17.85 17.85 0 0 0-2.66-.19h-9.79l-2.5 11.86zm2.4-15.7q7.3 0 7.3-6.53a3.93 3.93 0 0 0-.65-2.4 4 4 0 0 0-1.66-1.3 7.42 7.42 0 0 0-2.18-.55 22 22 0 0 0-2.23-.12h-8.45l-2.3 10.9zM306.51 135.75l-7.2 34.25h-4.56l7.2-34.27zM325.8 139.59L319.37 170h-4.56l6.43-30.43h-11.52l.82-3.84h27.65l-.86 3.84z" fill="#0023a0"/>
 
</svg>
