<?xml version="1.0" encoding="utf-8"?>
<!-- Generator: Adobe Illustrator 17.1.0, SVG Export Plug-In . SVG Version: 6.00 Build 0)  -->
<!DOCTYPE svg PUBLIC "-//W3C//DTD SVG 1.1//EN" "http://www.w3.org/Graphics/SVG/1.1/DTD/svg11.dtd">
<svg version="1.1" xmlns="http://www.w3.org/2000/svg" xmlns:xlink="http://www.w3.org/1999/xlink" x="0px" y="0px"
     viewBox="0 27.5 76 20.9" enable-background="new 0 27.5 76 20.9" xml:space="preserve">
        <path d="M17.4,39.8c0.1,0.4,0.1,1,0.1,1.9c0,1.7-0.1,2.9-0.4,3.7c-0.6,1.5-1.9,2.4-3.9,2.7c-1.2,0.2-2.5,0.3-4,0.3
            c-3,0-5-0.2-6.1-0.6c-1.3-0.3-2.2-1.1-2.7-2.5C0.1,44.6,0,43.4,0,41.7h5.2V42c0,0.9,0.2,1.5,0.7,1.8c0.6,0.2,1,0.3,1.3,0.3h1.9
            c1.1,0,1.7,0,1.8-0.1c0.5-0.1,0.8-0.4,1-0.9c0-0.1,0-0.2,0.1-0.4c0-0.2,0.1-0.4,0.1-0.6c0-0.9-0.3-1.4-1-1.6c-0.1,0-1.3-0.1-3.6-0.3
            c-1.7-0.2-2.8-0.3-3.4-0.4c-1.7-0.3-2.8-0.9-3.4-1.9c-0.5-1-0.7-2.3-0.7-3.9c0-1.2,0.1-2.2,0.4-3.1c0.3-0.7,0.7-1.3,1.3-1.8
            c0.8-0.5,1.9-0.8,3.3-1c0.8-0.1,2.1-0.1,3.9-0.1c1.9,0,3.4,0.1,4.6,0.3c2.3,0.6,3.4,2.3,3.4,5.2v1h-5.2c0-0.8-0.1-1.4-0.3-1.8
            c-0.3-0.4-1.2-0.6-2.7-0.6c-1.2,0-2.1,0.1-2.7,0.3c-0.4,0.3-0.6,0.8-0.6,1.6c0,0.9,0.2,1.4,0.6,1.5c0.4,0.2,0.7,0.3,1,0.3l1,0.1
            l4.3,0.3c1.7,0.1,3,0.5,3.9,1.3C16.8,37.9,17.2,38.7,17.4,39.8z M37.9,33.2v0.1l-0.1-0.1c-1.5-1.8-3.4-2.7-5.6-2.7
            c-2.8,0-4.9,1.2-6.2,3.6h11.6l-0.1,0.1l-1.3,3H24.8V38v0.9h10.4L35,39l-1.3,3v0.1H26c1.6,2.1,3.6,3.1,6.1,3.1c2.2,0,4-0.8,5.5-2.5
            l0.1-0.1v4h-0.1c-1.7,1.2-3.7,1.8-5.9,1.8c-2.1,0-4-0.6-5.8-1.7C24,45.5,22.8,44,22,42.2h-3.7V42l1.3-3l0.1-0.1h1.5
            c-0.1-0.2-0.1-0.5-0.1-0.9c0-0.3,0-0.5,0.1-0.7h-3.1v-0.1l1.5-3H22c0.7-1.8,1.9-3.3,3.7-4.6c1.8-1.2,3.8-1.8,5.9-1.8
            c2.8,0,5.2,0.9,7.4,2.8v0.1L37.9,33.2z M52.7,42.9c-0.9,0-1.9,0.1-3.1,0.1h-0.9h-3.4v5.3h-5.5V27.6h10.4c1.2,0,2.3,0.1,3.3,0.3
            c1.7,0.6,2.8,1.7,3.4,3.4c0.3,0.7,0.4,2,0.4,3.9c0,2.2-0.1,3.7-0.4,4.6C56.1,41.6,54.7,42.6,52.7,42.9z M51.6,36.1
            c0-0.3,0.1-0.7,0.1-1c0-0.7-0.1-1.3-0.3-1.9c-0.1-0.5-0.5-0.8-1.3-1h-1.2h-3.6v5.9h3.6c1.2,0,1.9,0,2.1-0.1c0.3-0.3,0.5-0.7,0.6-1.2
            C51.5,36.7,51.5,36.5,51.6,36.1z M69.3,44.8h-7.6l-0.9,3.6h-5.8l6.2-20.8h8.3L76,48.4h-5.6L69.3,44.8z M68.1,40.8l-2.5-9.1l-2.7,9.1
            H68.1z"/>
</svg>
