<svg xmlns="http://www.w3.org/2000/svg" width="28.539" height="29.123" viewBox="0 0 28.539 29.123"><path d="M7.63 7.938c3.215-3.215 8.132-3.674 11.847-1.402-1.26 1.246-2.71 2.702-2.71 2.702-1.017 1.22.124 1.922.704 1.904l6.79-.002c.36 0 .65.002.65.002h1.974c.36 0 .65-.293.652-.653V1.152c.04-.853-.896-1.68-1.866-.73 0 0-1.6 1.563-2.707 2.66C17.305-1.05 9.33-.584 4.22 4.527 1.238 7.51-.153 11.466.014 15.373h4.83c-.17-2.67.745-5.394 2.786-7.435zm16.065 5.812c.17 2.67-.745 5.394-2.786 7.435C17.69 24.4 12.776 24.86 9.06 22.587c1.258-1.246 2.71-2.702 2.71-2.702 1.016-1.22-.125-1.922-.705-1.903l-6.79.002c-.357 0-.65-.002-.65-.002H1.653a.652.652 0 0 0-.65.652v9.335c-.042.85.895 1.68 1.864.726 0 0 1.6-1.56 2.708-2.656 5.66 4.135 13.633 3.667 18.743-1.444 2.98-2.982 4.373-6.938 4.207-10.845h-4.83z"/></svg>