<svg xmlns="http://www.w3.org/2000/svg" viewBox="0 0 178.9 114.4">
        <path fill="none" d="M.6.7h177.6v113.1H.7"/><path d="M177.6 63.6s-48.5 34.2-137.4 49.6h137.4V63.6z"/><path d="M178.2 0H0v114.4h178.9V0h-.7zm-.6 1.3v111.8H1.3V1.3h176.3z"/><path d="M15.6 35H8.2v25.9h7.4c3.9 0 6.8-.9 9.2-3 3-2.4 4.7-6.1 4.7-9.9 0-7.7-5.7-13-13.9-13zm5.9 19.5c-1.6 1.4-3.6 2.1-6.9 2.1h-1.4V39.4h1.4c3.3 0 5.2.6 6.9 2.1 1.7 1.6 2.8 4 2.8 6.4 0 2.5-1 5-2.8 6.6zM31.9 35h5v25.9h-5zM49.3 44.9c-3-1.1-3.9-1.9-3.9-3.3 0-1.6 1.6-2.9 3.8-2.9 1.5 0 2.8.6 4.1 2.1l2.6-3.5c-2.2-1.9-4.8-2.9-7.6-2.9-4.6 0-8.1 3.2-8.1 7.4 0 3.6 1.6 5.4 6.4 7.1 2 .7 3 1.2 3.5 1.5 1 .7 1.5 1.6 1.5 2.7 0 2.1-1.7 3.7-3.9 3.7-2.4 0-4.3-1.2-5.5-3.5l-3.3 3.1c2.3 3.4 5.1 4.9 9 4.9 5.2 0 8.9-3.5 8.9-8.5-.1-3.9-1.8-5.8-7.5-7.9zM58.3 48c0 7.6 6 13.5 13.7 13.5 2.2 0 4-.4 6.3-1.5v-6c-2 2-3.8 2.8-6.1 2.8-5.1 0-8.7-3.7-8.7-8.9 0-5 3.7-8.9 8.5-8.9 2.4 0 4.2.9 6.3 2.9V36c-2.2-1.1-4-1.6-6.2-1.6-7.7 0-13.8 6-13.8 13.6zM118.3 52.4L111.4 35h-5.5l11 26.6h2.7L130.8 35h-5.5M133.1 60.9h14.3v-4.4h-9.3v-7h8.9v-4.4h-8.9v-5.7h9.3V35h-14.3M167.4 42.7c0-4.8-3.3-7.6-9.2-7.6h-7.5V61h5V50.5h.7l7 10.4h6.2L161.5 50c3.8-.8 5.9-3.4 5.9-7.3zm-10.2 4.2h-1.5v-7.8h1.6c3.1 0 4.9 1.3 4.9 3.8 0 2.6-1.7 4-5 4z"/><circle cx="93.7" cy="48" r="13.8"/><path d="M170.4 36c0-.5-.3-.7-.9-.7h-.7v2.3h.5v-.9l.6.9h.7l-.7-.9c.3-.1.5-.3.5-.7zm-1 .4l-.1-.6h.1c.3 0 .4.1.4.3 0 .2-.1.3-.4.3z"/><path d="M169.6 34.5c-1.1 0-2 .9-2 2s.9 2 2 2 2-.9 2-2-.9-2-2-2zm0 3.6c-.9 0-1.6-.7-1.6-1.6 0-.9.7-1.6 1.6-1.6.9 0 1.6.7 1.6 1.6 0 .9-.7 1.6-1.6 1.6z"/>
</svg>
