<?xml version="1.0" encoding="utf-8"?>
<!-- Generator: Adobe Illustrator 16.0.4, SVG Export Plug-In . SVG Version: 6.00 Build 0)  -->
<!DOCTYPE svg PUBLIC "-//W3C//DTD SVG 1.1//EN" "http://www.w3.org/Graphics/SVG/1.1/DTD/svg11.dtd">
<svg version="1.1" id="Layer_1" xmlns="http://www.w3.org/2000/svg" xmlns:xlink="http://www.w3.org/1999/xlink" x="0px" y="0px"
	 width="16px" height="16px" viewBox="0 0 16 16" enable-background="new 0 0 16 16" xml:space="preserve">
<g>
	<path fill="#FFFFFF" d="M15.5,6.125c0,0.342-0.283,0.625-0.627,0.625H10.5c-0.255,0-0.479-0.155-0.577-0.39
		c-0.098-0.225-0.05-0.498,0.138-0.673l1.347-1.348C10.49,3.488,9.278,3,8,3C5.245,3,3,5.247,3,8c0,2.755,2.245,5,5,5
		c1.552,0,2.987-0.704,3.944-1.943c0.05-0.068,0.138-0.107,0.225-0.116c0.088,0,0.177,0.029,0.244,0.088l1.339,1.347
		c0.117,0.108,0.117,0.294,0.019,0.42C12.346,14.514,10.235,15.5,8,15.5c-4.131,0-7.5-3.368-7.5-7.5c0-4.13,3.369-7.5,7.5-7.5
		c1.923,0,3.789,0.771,5.165,2.07l1.27-1.259c0.175-0.187,0.449-0.235,0.684-0.137C15.343,1.271,15.5,1.497,15.5,1.75V6.125z"/>
</g>
</svg>
