<?xml version="1.0" encoding="utf-8"?>
<!-- Generator: Adobe Illustrator 16.0.4, SVG Export Plug-In . SVG Version: 6.00 Build 0)  -->
<!DOCTYPE svg PUBLIC "-//W3C//DTD SVG 1.1//EN" "http://www.w3.org/Graphics/SVG/1.1/DTD/svg11.dtd">
<svg version="1.1" id="Layer_1" xmlns="http://www.w3.org/2000/svg" xmlns:xlink="http://www.w3.org/1999/xlink" x="0px" y="0px"
	 width="16px" height="16px" viewBox="0 0 16 16" enable-background="new 0 0 16 16" xml:space="preserve">
<path fill="#FFFFFF" d="M9.141,5.265c0-2.015-1.634-3.647-3.647-3.647c-2.015,0-3.647,1.633-3.647,3.647
	c0,2.014,1.633,3.647,3.647,3.647C7.506,8.912,9.141,7.279,9.141,5.265z M10.507,5.265c0,2.77-2.245,5.014-5.014,5.014
	c-2.77,0-5.015-2.244-5.015-5.014S2.724,0.25,5.493,0.25S10.507,2.495,10.507,5.265z M15.124,13.482
	c0.515,0.514,0.53,1.338,0.046,1.871l-0.021,0.021l-0.023,0.021c-0.529,0.484-1.355,0.468-1.87-0.045L8.8,10.367
	c0.806-0.514,1.144-0.823,1.607-1.516L15.124,13.482z"/>
</svg>
