<svg xmlns="http://www.w3.org/2000/svg" viewBox="0 0 61 61"><style>.lp_teaser-overlay-icons {fill:#606060;}</style><path d="M16.74 35.54v-.976c0-.15.11-.27.244-.27H27.21c.134 0 .2.1.2.27v.977c0 .15-.11.27-.246.27H16.982c-.134-.005-.25-.127-.25-.27h.007zm.307 2.653h12.856c.17 0 .308-.12.308-.27v-.977c0-.15-.135-.27-.306-.27H17.048c-.17 0-.307.12-.307.27v.977c0 .1.1.3.3.27h.007zM61 30.5C61 47.3 47.3 61 30.5 61S0 47.3 0 30.5 13.655 0 30.5 0 61 13.7 61 30.5zm-14.238-2.418H14.238v10.22c0 1.2 1 2.3 2.3 2.25h28.026c1.242 0 2.25-1.008 2.25-2.25v-10.22h-.052zm0-5.384c0-1.242-1.007-2.25-2.25-2.25H16.488c-1.242 0-2.25 1.008-2.25 2.25v2.065h32.526V22.7s.037 0 .037-.002z" class="lp_teaser-overlay-icons"/></svg>