<svg xmlns="http://www.w3.org/2000/svg" viewBox="0 0 61 61"><style>.lp_teaser-overlay-icons {fill:#606060;}</style><path d="M45.664 37.478H15.336V25.325h30.33l-.002 12.153zM61 30.5C61 47.3 47.3 61 30.5 61S0 47.3 0 30.5 13.655 0 30.5 0 61 13.7 61 30.5zm-46.92-5.73v13.262c0 .4.2.7.5.704h31.923c.254 0 .46-.315.46-.7V24.77c0-.388-.206-.7-.46-.7H14.538c-.254.007-.468.312-.468.698h.01zm29.04-5.52v-2.71H14.08v2.71h29.04zM14.118 50.064h29.33v-2.712h-29.33v2.712zm25.397 8.134h-18.03c2.85.9 5.9 1.4 9 1.356s6.173-.465 9.015-1.356h.015zm7.446-5.423H14.12v2c.385.2.8.5 1.2.712h30.42c.423-.244.84-.498 1.25-.762v-1.95h-.027zm0-10.845H14.12v2.712H46.96L47 41.93zm4.148-28.32c0-1.164-.94-2.112-2.096-2.112H11.988c-1.156 0-2.097.95-2.097 2.115v37.924c.41.4.8.7 1.3 1.094V13.61c0-.47.377-.855.84-.855h37.025c.463 0 .8.4.8.856v39.02c.43-.354.848-.72 1.257-1.095V13.61h-.004z" class="lp_teaser-overlay-icons"/></svg>