<svg xmlns="http://www.w3.org/2000/svg" viewBox="0 0 300 233.23777" height="233.238" width="300"><path d="M55.228 231.726V216.38c0-5.885-3.58-9.722-9.72-9.722-3.07 0-6.395 1.024-8.697 4.35-1.79-2.815-4.347-4.35-8.184-4.35-2.558 0-5.116.768-7.162 3.58v-3.068h-5.372v24.556h5.372V218.17c0-4.35 2.302-6.396 5.883-6.396 3.58 0 5.37 2.302 5.37 6.395v13.556h5.373V218.17c0-4.35 2.558-6.396 5.883-6.396 3.582 0 5.372 2.302 5.372 6.395v13.556h5.883zm79.552-24.556h-8.697v-7.418h-5.37v7.418h-4.86v4.86h4.86v11.255c0 5.627 2.3 8.953 8.44 8.953 2.302 0 4.86-.768 6.65-1.79l-1.534-4.605c-1.536 1.023-3.327 1.28-4.606 1.28-2.558 0-3.58-1.536-3.58-4.094v-11h8.696v-4.86zm45.532-.512c-3.07 0-5.116 1.535-6.395 3.58v-3.068h-5.372v24.556h5.372v-13.813c0-4.092 1.79-6.395 5.116-6.395 1.023 0 2.302.256 3.325.512l1.535-5.116c-1.023-.256-2.558-.256-3.58-.256zm-68.81 2.558c-2.557-1.79-6.138-2.558-9.975-2.558-6.14 0-10.232 3.07-10.232 7.93 0 4.093 3.07 6.395 8.44 7.162l2.56.256c2.813.512 4.348 1.28 4.348 2.558 0 1.79-2.046 3.07-5.628 3.07-3.58 0-6.394-1.28-8.185-2.558l-2.558 4.092c2.814 2.047 6.65 3.07 10.488 3.07 7.162 0 11.255-3.326 11.255-7.93 0-4.348-3.326-6.65-8.442-7.418l-2.558-.256c-2.302-.255-4.092-.767-4.092-2.302 0-1.79 1.79-2.814 4.604-2.814 3.07 0 6.14 1.28 7.674 2.047l2.303-4.35zm142.734-2.558c-3.07 0-5.116 1.535-6.395 3.58v-3.068h-5.37v24.556h5.37v-13.813c0-4.092 1.792-6.395 5.117-6.395 1.023 0 2.302.256 3.325.512l1.535-5.116c-1.023-.256-2.558-.256-3.58-.256zm-68.553 12.79c0 7.418 5.116 12.79 13.046 12.79 3.58 0 6.138-.768 8.696-2.814l-2.558-4.348c-2.047 1.534-4.093 2.302-6.395 2.302-4.35 0-7.418-3.07-7.418-7.93 0-4.604 3.07-7.674 7.418-7.93 2.302 0 4.348.768 6.395 2.303l2.558-4.348c-2.558-2.046-5.116-2.814-8.697-2.814-7.93 0-13.047 5.372-13.047 12.79zm49.624 0V207.17h-5.37v3.07c-1.792-2.303-4.35-3.582-7.675-3.582-6.907 0-12.278 5.372-12.278 12.79 0 7.418 5.37 12.79 12.278 12.79 3.58 0 6.14-1.28 7.674-3.58v3.068h5.37v-12.278zm-19.696 0c0-4.348 2.815-7.93 7.42-7.93 4.348 0 7.417 3.326 7.417 7.93 0 4.35-3.07 7.93-7.418 7.93-4.605-.256-7.42-3.58-7.42-7.93zm-64.203-12.79c-7.162 0-12.278 5.116-12.278 12.79 0 7.674 5.115 12.79 12.533 12.79 3.58 0 7.162-1.023 9.976-3.326l-2.56-3.836c-2.046 1.534-4.604 2.557-7.162 2.557-3.325 0-6.65-1.534-7.418-5.883h18.162v-2.046c.256-7.93-4.35-13.046-11.255-13.046zm0 4.605c3.325 0 5.627 2.046 6.14 5.883h-12.79c.51-3.325 2.813-5.883 6.65-5.883zm133.27 8.185V197.45h-5.373v12.79c-1.79-2.303-4.35-3.582-7.674-3.582-6.906 0-12.278 5.372-12.278 12.79 0 7.418 5.372 12.79 12.278 12.79 3.58 0 6.14-1.28 7.674-3.58v3.068h5.372v-12.278zm-19.698 0c0-4.348 2.813-7.93 7.417-7.93 4.35 0 7.418 3.326 7.418 7.93 0 4.35-3.07 7.93-7.418 7.93-4.604-.256-7.418-3.58-7.418-7.93zm-179.568 0V207.17H80.04v3.07c-1.79-2.303-4.348-3.582-7.673-3.582-6.907 0-12.28 5.372-12.28 12.79 0 7.418 5.373 12.79 12.28 12.79 3.58 0 6.14-1.28 7.673-3.58v3.068h5.372v-12.278zm-19.952 0c0-4.348 2.814-7.93 7.418-7.93 4.35 0 7.418 3.326 7.418 7.93 0 4.35-3.07 7.93-7.418 7.93-4.604-.256-7.418-3.58-7.418-7.93z"/><path class="st1" fill="#ff5f00" d="M109.712 20.696h80.576v144.78h-80.576z"/><path d="M114.828 93.086c0-29.416 13.813-55.507 35.044-72.39C134.27 8.418 114.572 1 93.086 1 42.183 1 1 42.183 1 93.086s41.183 92.086 92.086 92.086c21.487 0 41.183-7.418 56.786-19.696-21.23-16.627-35.044-42.974-35.044-72.39z" class="st2" fill="#eb001b"/><path d="M299 93.086c0 50.903-41.183 92.086-92.086 92.086-21.487 0-41.183-7.418-56.786-19.696 21.487-16.883 35.044-42.974 35.044-72.39 0-29.416-13.813-55.507-35.044-72.39C165.73 8.418 185.428 1 206.914 1 257.817 1 299 42.44 299 93.086z" class="st3" fill="#f79e1b"/></svg>