<svg xmlns="http://www.w3.org/2000/svg" height="123.517" width="376" viewBox="0 0 282 92.637756"><path d="M184.19.983c-22.43 0-38.184 11.924-38.323 28.974-.142 12.63 11.267 19.674 19.848 23.872 8.853 4.29 11.81 7.05 11.78 10.888-.087 5.885-7.083 8.566-13.584 8.566-9.062 0-13.894-1.323-21.32-4.59l-2.946-1.4-3.172 19.652c5.303 2.445 15.095 4.564 25.275 4.675 23.8 0 39.287-11.786 39.47-29.986.095-10.018-5.96-17.6-19.055-23.86-7.904-4.07-12.792-6.77-12.72-10.893.007-3.643 4.102-7.55 12.992-7.55 7.425-.124 12.764 1.58 16.968 3.376l2.022 1.01 3.085-19.037C200.03 2.91 192.96.983 184.19.983zm-70.41 1.532L99.594 90.323h22.665l14.193-87.81h-22.67zM80.575 2.6L58.38 62.444l-2.365-12.16c-5.527-14.91-17.492-30.552-31.426-36.89l20.3 76.845 24-.012L104.58 2.6H80.576zm164.57.006c-5.43 0-9.5 1.547-11.897 7.288L199.59 90.352h23.814s3.893-10.83 4.774-13.2c2.6 0 25.727.05 29.027.05.7 3.06 2.76 13.15 2.76 13.15h21.056L262.663 2.605h-17.516zm1.602 23.673l1.51 7.568s4.358 20.95 5.267 25.34h-18.822c1.883-5.04 9.032-24.545 9.032-24.545-.14.24 1.86-5.08 3.013-8.365z" fill="#0023a0"/><path d="M37.798 2.554H1.23l-.213 1.51c28.43 7.272 47.188 25.128 54.998 46.243L48.068 9.95c-1.366-5.55-5.345-7.2-10.27-7.396" fill="#ffab00"/></svg>