<svg xmlns="http://www.w3.org/2000/svg" version="1.1" x="0" y="0" width="512" height="512" viewBox="0 0 512 512" enable-background="new 0 0 512 512" xml:space="preserve"><path id="icon-warning" class="icon" fill="#fff" d="M256 50C142.23 50 50 142.23 50 256 50 369.77 142.23 462 256 462 369.77 462 462 369.77 462 256 462 142.23 369.77 50 256 50zM256.46 398.52c-16.21 0-29.34-13.14-29.34-29.35 0-16.2 13.14-29.34 29.35-29.34 16.2 0 29.34 13.14 29.34 29.34C285.8 385.38 272.67 398.52 256.46 398.52zM295.23 158.24c-2.48 19.78-20.7 116.08-26.72 147.72 -1.11 5.85-6.23 10.1-12.19 10.1h-0.24c-6.17 0-11.44-4.38-12.59-10.44 -6.1-32.12-24.29-128.5-26.73-147.97 -2.94-23.44 15.35-44.17 38.98-44.17C279.67 113.48 298.21 134.49 295.23 158.24z"/></svg>