<?xml version="1.0" encoding="utf-8"?>
<!-- Generator: Adobe Illustrator 17.1.0, SVG Export Plug-In . SVG Version: 6.00 Build 0)  -->
<!DOCTYPE svg PUBLIC "-//W3C//DTD SVG 1.1//EN" "http://www.w3.org/Graphics/SVG/1.1/DTD/svg11.dtd">
<svg version="1.1" id="Layer_2" xmlns="http://www.w3.org/2000/svg" xmlns:xlink="http://www.w3.org/1999/xlink" x="0px" y="0px"
	 viewBox="0 0 311 66" enable-background="new 0 0 311 66" xml:space="preserve">
<g>
	<path fill="#5698C6" d="M87.1,28.6c-0.2-0.2-0.6-0.5-1.1-0.8c-0.5-0.3-1.1-0.7-1.9-1c-0.7-0.3-1.5-0.6-2.4-0.8
		c-0.9-0.2-1.8-0.3-2.6-0.3c-1.6,0-2.8,0.3-3.6,0.9c-0.8,0.6-1.2,1.4-1.2,2.5c0,0.6,0.1,1.1,0.4,1.5c0.3,0.4,0.7,0.8,1.3,1.1
		c0.6,0.3,1.3,0.6,2.1,0.8c0.9,0.3,1.8,0.5,3,0.8c1.5,0.4,2.8,0.8,4,1.3c1.2,0.4,2.2,1,3,1.7c0.8,0.7,1.5,1.5,1.9,2.4
		c0.4,0.9,0.7,2.1,0.7,3.5c0,1.6-0.3,3-0.9,4.1c-0.6,1.1-1.4,2.1-2.4,2.8c-1,0.7-2.2,1.2-3.5,1.5c-1.3,0.3-2.7,0.5-4.2,0.5
		c-2.2,0-4.5-0.3-6.6-1c-2.2-0.7-4.1-1.6-5.9-2.9l2.6-5c0.3,0.3,0.7,0.6,1.4,1c0.7,0.4,1.4,0.8,2.3,1.2c0.9,0.4,1.9,0.7,3,1
		c1.1,0.3,2.2,0.4,3.4,0.4c3.2,0,4.8-1,4.8-3.1c0-0.7-0.2-1.2-0.5-1.7c-0.4-0.4-0.9-0.8-1.6-1.2S81,39.2,80,38.9
		c-1-0.3-2-0.6-3.2-0.9c-1.4-0.4-2.7-0.8-3.7-1.3c-1.1-0.5-1.9-1-2.6-1.6c-0.7-0.6-1.2-1.3-1.6-2.2c-0.4-0.8-0.5-1.8-0.5-3
		c0-1.5,0.3-2.9,0.8-4c0.6-1.2,1.3-2.2,2.3-2.9c1-0.8,2.1-1.4,3.5-1.8c1.3-0.4,2.7-0.6,4.2-0.6c2.1,0,4,0.3,5.8,1
		c1.8,0.7,3.3,1.4,4.6,2.3L87.1,28.6z"/>
	<path fill="#5698C6" d="M93.4,25.6V20H99v5.6H93.4z M93.4,50.6v-22H99v22H93.4z"/>
	<path fill="#5698C6" d="M137.2,50.6h-5.6V38.3c0-1.8-0.3-3.1-0.9-3.9c-0.6-0.8-1.5-1.2-2.5-1.2c-1.1,0-2.1,0.4-3.1,1.3
		c-1,0.9-1.7,2-2.1,3.3v12.8h-5.6V38.3c0-1.8-0.3-3.1-0.9-3.9c-0.6-0.8-1.4-1.2-2.5-1.2c-1.1,0-2.1,0.4-3.1,1.3
		c-1,0.8-1.7,1.9-2.1,3.3v12.9H103v-22h5.1v4.1c0.8-1.4,1.9-2.5,3.3-3.3c1.4-0.8,3-1.2,4.9-1.2c1.8,0,3.3,0.4,4.3,1.3
		c1,0.9,1.6,2,2,3.3c0.9-1.5,2-2.7,3.4-3.5c1.4-0.8,2.9-1.2,4.7-1.2c1.3,0,2.5,0.3,3.3,0.8c0.9,0.5,1.5,1.2,2,2
		c0.5,0.8,0.8,1.7,1,2.8c0.2,1,0.3,2.1,0.3,3.1V50.6z"/>
	<path fill="#5698C6" d="M154.1,51.1c-1.7,0-3.2-0.4-4.5-1.2c-1.3-0.8-2.3-1.8-3-3.1v12.8h-5.6v-31h4.9v3.8c0.8-1.3,1.9-2.3,3.1-3
		c1.3-0.7,2.8-1.1,4.5-1.1c1.5,0,2.9,0.3,4.1,0.9c1.3,0.6,2.3,1.4,3.3,2.4c0.9,1,1.6,2.2,2.1,3.6c0.5,1.4,0.8,2.8,0.8,4.4
		c0,1.6-0.2,3.1-0.7,4.5c-0.5,1.4-1.1,2.6-2,3.7c-0.9,1-1.9,1.8-3.1,2.4C156.8,50.8,155.5,51.1,154.1,51.1z M152.2,46.3
		c0.8,0,1.6-0.2,2.3-0.5c0.7-0.4,1.3-0.9,1.8-1.5c0.5-0.6,0.9-1.3,1.2-2.1c0.3-0.8,0.4-1.7,0.4-2.5c0-0.9-0.2-1.8-0.5-2.6
		c-0.3-0.8-0.7-1.5-1.3-2.1c-0.5-0.6-1.2-1-1.9-1.4c-0.7-0.3-1.5-0.5-2.4-0.5c-0.5,0-1.1,0.1-1.6,0.3c-0.6,0.2-1.1,0.4-1.6,0.8
		c-0.5,0.3-0.9,0.7-1.3,1.2c-0.4,0.4-0.7,0.9-0.9,1.5v5.2c0.5,1.3,1.3,2.3,2.3,3.1C149.9,45.9,151,46.3,152.2,46.3z"/>
	<path fill="#5698C6" d="M166.4,20h5.6v23.4c0,1.7,0.8,2.6,2.3,2.6c0.3,0,0.7-0.1,1.1-0.2c0.4-0.1,0.8-0.2,1.2-0.4l0.8,4.5
		c-0.8,0.4-1.6,0.6-2.6,0.8c-1,0.2-1.9,0.3-2.7,0.3c-1.8,0-3.1-0.5-4.1-1.4c-1-0.9-1.4-2.3-1.4-4V20z"/>
	<path fill="#5698C6" d="M188.9,51.1c-1.8,0-3.4-0.3-4.8-0.9c-1.4-0.6-2.6-1.4-3.7-2.5c-1-1-1.8-2.2-2.3-3.6
		c-0.5-1.4-0.8-2.8-0.8-4.3c0-1.6,0.3-3,0.8-4.4c0.5-1.4,1.3-2.6,2.3-3.7c1-1.1,2.2-1.9,3.7-2.5c1.4-0.6,3.1-0.9,4.9-0.9
		s3.4,0.3,4.8,0.9c1.4,0.6,2.6,1.4,3.6,2.5c1,1,1.7,2.2,2.3,3.6c0.5,1.4,0.8,2.8,0.8,4.3c0,0.4,0,0.7,0,1c0,0.3,0,0.6-0.1,0.8h-17
		c0.1,0.9,0.3,1.6,0.6,2.3c0.3,0.7,0.8,1.2,1.3,1.7c0.5,0.5,1.1,0.8,1.8,1.1c0.7,0.3,1.4,0.4,2.1,0.4c1.1,0,2.2-0.3,3.2-0.8
		c1-0.5,1.7-1.3,2-2.2l4.8,1.3c-0.8,1.7-2.1,3.1-3.9,4.1C193.5,50.5,191.4,51.1,188.9,51.1z M194.6,37.8c-0.1-1.7-0.8-3-1.8-4
		c-1.1-1-2.4-1.5-3.9-1.5c-0.8,0-1.5,0.1-2.1,0.4c-0.7,0.3-1.2,0.6-1.7,1.1s-0.9,1-1.2,1.7c-0.3,0.7-0.5,1.4-0.6,2.2H194.6z"/>
	<path fill="#666766" d="M203.6,39.6c0-1.5,0.3-3,0.8-4.4c0.5-1.4,1.3-2.6,2.3-3.6c1-1,2.2-1.9,3.7-2.5c1.4-0.6,3-0.9,4.8-0.9
		c2.4,0,4.5,0.5,6.2,1.6c1.7,1,3,2.4,3.8,4.1l-5.5,1.7c-0.5-0.8-1.1-1.4-1.9-1.9c-0.8-0.4-1.7-0.7-2.6-0.7c-0.8,0-1.6,0.2-2.3,0.5
		c-0.7,0.3-1.3,0.8-1.8,1.3c-0.5,0.6-0.9,1.3-1.2,2.1c-0.3,0.8-0.4,1.7-0.4,2.7c0,1,0.2,1.9,0.5,2.7c0.3,0.8,0.7,1.5,1.2,2.1
		c0.5,0.6,1.1,1,1.8,1.4c0.7,0.3,1.4,0.5,2.2,0.5c1,0,1.9-0.3,2.8-0.8c0.9-0.5,1.4-1.1,1.8-1.8l5.5,1.7c-0.8,1.7-2,3.1-3.7,4.1
		c-1.7,1.1-3.8,1.6-6.3,1.6c-1.8,0-3.4-0.3-4.8-0.9c-1.4-0.6-2.6-1.4-3.7-2.5c-1-1.1-1.8-2.3-2.3-3.7
		C203.9,42.6,203.6,41.1,203.6,39.6z"/>
	<path fill="#666766" d="M248.7,50.6H243V38.3c0-1.7-0.3-3-1-3.8c-0.6-0.8-1.6-1.2-2.7-1.2c-0.5,0-1,0.1-1.6,0.3
		c-0.6,0.2-1.1,0.5-1.6,0.9c-0.5,0.4-1,0.9-1.4,1.4c-0.4,0.6-0.7,1.2-0.9,1.8v12.9h-5.6V20h5.6v12.7c0.8-1.4,1.9-2.5,3.3-3.3
		c1.4-0.8,2.9-1.2,4.6-1.2c1.4,0,2.6,0.2,3.5,0.7c0.9,0.5,1.6,1.1,2.1,2c0.5,0.8,0.9,1.7,1,2.8c0.2,1,0.3,2.1,0.3,3.2V50.6z"/>
	<path fill="#666766" d="M259.1,51.1c-1.1,0-2.1-0.2-3-0.5s-1.7-0.8-2.4-1.5c-0.7-0.6-1.2-1.4-1.6-2.2c-0.4-0.8-0.6-1.8-0.6-2.8
		c0-1,0.2-2,0.7-2.9c0.5-0.9,1.1-1.6,1.9-2.2c0.8-0.6,1.8-1.1,3-1.4c1.1-0.3,2.4-0.5,3.8-0.5c1,0,1.9,0.1,2.9,0.3
		c0.9,0.2,1.8,0.4,2.5,0.7v-1.3c0-1.5-0.4-2.6-1.2-3.4c-0.8-0.8-2.1-1.2-3.7-1.2c-1.2,0-2.3,0.2-3.4,0.6s-2.3,1-3.4,1.8l-1.7-3.6
		c2.8-1.9,5.9-2.8,9.2-2.8c3.2,0,5.6,0.8,7.4,2.3c1.8,1.6,2.6,3.8,2.6,6.7v6.8c0,0.6,0.1,1,0.3,1.3c0.2,0.3,0.6,0.4,1.2,0.4v4.8
		c-0.5,0.1-1,0.2-1.5,0.2c-0.5,0-0.9,0.1-1.2,0.1c-1.1,0-1.9-0.3-2.4-0.7c-0.6-0.5-0.9-1.1-1-1.9l-0.1-1.2c-1,1.3-2.2,2.3-3.6,2.9
		S260.7,51.1,259.1,51.1z M260.7,46.9c1,0,1.9-0.2,2.7-0.5c0.9-0.3,1.5-0.8,2-1.3c0.6-0.5,0.9-1,0.9-1.6V41
		c-0.7-0.3-1.4-0.5-2.2-0.6c-0.8-0.2-1.5-0.2-2.3-0.2c-1.5,0-2.6,0.3-3.6,1c-0.9,0.7-1.4,1.5-1.4,2.5c0,1,0.4,1.7,1.1,2.4
		C258.8,46.6,259.6,46.9,260.7,46.9z"/>
	<path fill="#666766" d="M290,33.5c-1.7,0-3.2,0.4-4.6,1s-2.3,1.6-2.9,2.8v13.3h-5.6v-22h5.2v4.7c0.8-1.5,1.7-2.7,3-3.7
		c1.2-0.9,2.5-1.4,3.8-1.4c0.3,0,0.5,0,0.7,0c0.2,0,0.3,0,0.4,0.1V33.5z"/>
	<path fill="#666766" d="M306.8,49.5c-0.8,0.3-1.7,0.7-2.8,1c-1.1,0.3-2.3,0.5-3.5,0.5c-0.8,0-1.5-0.1-2.2-0.3
		c-0.7-0.2-1.3-0.5-1.8-0.9c-0.5-0.4-0.9-1-1.2-1.7c-0.3-0.7-0.5-1.5-0.5-2.5V32.9H292v-4.3h2.9v-7.1h5.6v7.1h4.7v4.3h-4.7v10.8
		c0,0.8,0.2,1.3,0.6,1.7c0.4,0.3,0.9,0.5,1.5,0.5s1.2-0.1,1.7-0.3c0.6-0.2,1-0.4,1.3-0.5L306.8,49.5z"/>
</g>
<path fill="#F89D4C" d="M61.2,34.3c0,15.1-12.3,27.4-27.4,27.4c-10.1,0-19-5.5-23.8-13.7c0.6-1,14.7-22.8,15.4-24.3
	c1.7,1.7,11.9,10.2,17.1,15.4c1.1-1,14.4-16.5,14.8-18C57.5,22.2,61.2,28.6,61.2,34.3z"/>
<circle fill="none" stroke="#666766" stroke-width="3" stroke-miterlimit="10" cx="33.8" cy="34.3" r="27.4"/>
</svg>
