<svg xmlns="http://www.w3.org/2000/svg" xmlns:xlink="http://www.w3.org/1999/xlink" preserveAspectRatio="xMidYMid" width="50" height="50" viewBox="0 0 50 50">
  <defs>
    <style>

      .cls-3 {
        fill: #f22c3b;
      }

      .cls-4 {
        fill: #ffffff;
      }
    </style>
  </defs>
  <g id="group-109">
    <path d="M49.998,24.999 C49.998,38.805 38.806,49.998 24.999,49.998 C11.193,49.998 0.001,38.805 0.001,24.999 C0.001,11.193 11.193,0.000 24.999,0.000 C38.806,0.000 49.998,11.193 49.998,24.999 Z" id="path-1" class="cls-3" fill-rule="evenodd"/>
    <path d="M35.000,35.457 C35.000,36.861 33.861,38.000 32.457,38.000 C32.457,38.000 32.324,38.000 32.324,38.000 C30.920,38.000 29.781,36.861 29.781,35.457 C29.781,35.457 29.781,32.668 29.781,32.668 C29.781,32.667 29.781,32.666 29.781,32.666 C29.781,32.666 29.781,30.155 29.781,30.155 C29.781,30.155 20.220,30.155 20.220,30.155 C20.220,30.155 20.220,33.851 20.220,33.851 C20.220,33.851 20.219,33.851 20.219,33.851 C20.219,33.851 20.219,35.457 20.219,35.457 C20.219,36.861 19.080,38.000 17.676,38.000 C17.676,38.000 17.543,38.000 17.543,38.000 C16.138,38.000 15.000,36.861 15.000,35.457 C15.000,35.457 15.000,32.668 15.000,32.668 C15.000,32.645 15.006,32.624 15.007,32.601 C15.007,32.601 15.007,25.602 15.007,25.602 C15.007,25.602 15.007,22.443 15.007,22.443 C15.007,22.443 15.007,18.769 15.007,18.769 C15.007,18.769 15.007,18.693 15.007,18.693 C15.007,18.693 15.007,10.998 15.007,10.998 C15.007,10.998 20.004,15.585 20.004,15.585 C20.004,15.585 24.899,10.998 24.899,10.998 C24.899,10.998 29.997,15.585 29.997,15.585 C29.997,15.585 34.995,10.998 34.995,10.998 C34.995,10.998 34.995,18.693 34.995,18.693 C34.995,18.693 34.995,22.443 34.995,22.443 C34.995,22.443 34.995,25.602 34.995,25.602 C34.995,25.602 34.995,32.615 34.995,32.615 C34.995,32.633 35.000,32.650 35.000,32.668 C35.000,32.668 35.000,35.457 35.000,35.457 ZM29.781,23.434 C29.781,20.882 27.641,18.813 25.001,18.813 C22.360,18.813 20.220,20.882 20.220,23.434 C20.220,23.434 20.220,25.793 20.220,25.793 C20.220,25.793 29.781,25.793 29.781,25.793 C29.781,25.793 29.781,23.434 29.781,23.434 Z" id="path-2" class="cls-4" fill-rule="evenodd"/>
  </g>
</svg>
